STARTFONT 2.3
FONT -FontForge-Tangerine-Book-R-Normal--36-360-72-72-P-134-ISO10646-1
SIZE 36 72 72  4
FONTBOUNDINGBOX 60 38 -12 -10
COMMENT "Generated by fontforge, http://fontforge.sourceforge.net"
COMMENT "Copyright (c) 2010 by Toshi Omagari. All rights reserved."
STARTPROPERTIES 40
FOUNDRY "FontForge"
FAMILY_NAME "Tangerine"
WEIGHT_NAME "Book"
SLANT "R"
SETWIDTH_NAME "Normal"
ADD_STYLE_NAME ""
PIXEL_SIZE 36
POINT_SIZE 360
RESOLUTION_X 72
RESOLUTION_Y 72
SPACING "P"
AVERAGE_WIDTH 134
CHARSET_REGISTRY "ISO10646"
CHARSET_ENCODING "1"
FONTNAME_REGISTRY ""
CHARSET_COLLECTIONS "ISO10646-1"
BITS_PER_PIXEL 4
FONT_NAME "Tangerine-Regular"
FACE_NAME "Tangerine Regular"
COPYRIGHT "Copyright (c) 2010 by Toshi Omagari. All rights reserved."
FONT_VERSION "1.3"
FONT_ASCENT 27
FONT_DESCENT 9
UNDERLINE_POSITION -4
UNDERLINE_THICKNESS 2
X_HEIGHT 8
CAP_HEIGHT 22
RAW_ASCENT 750
RAW_DESCENT 250
NORM_SPACE 5
RELATIVE_WEIGHT 40
RELATIVE_SETWIDTH 50
SUPERSCRIPT_X 0
SUPERSCRIPT_Y 17
SUPERSCRIPT_SIZE 23
SUBSCRIPT_X 0
SUBSCRIPT_Y 5
SUBSCRIPT_SIZE 23
AVG_LOWERCASE_WIDTH 87
AVG_UPPERCASE_WIDTH 256
ENDPROPERTIES
CHARS 233
STARTCHAR space
ENCODING 32
SWIDTH 150 0
DWIDTH 5 0
BBX 1 1 0 0
BITMAP
00
ENDCHAR
STARTCHAR exclam
ENCODING 33
SWIDTH 189 0
DWIDTH 7 0
BBX 10 19 2 0
BITMAP
0000000064
0000000AE1
0000004F80
0000008F10
000000D900
000003F200
000008A000
00000D3000
00004B0000
0000A40000
0001C00000
0006500000
000B000000
0047000000
0091000000
0010000000
0000000000
6E00000000
D600000000
ENDCHAR
STARTCHAR quotedbl
ENCODING 34
SWIDTH 214 0
DWIDTH 8 0
BBX 9 6 1 9
BITMAP
0004801830
001E70AC10
00A904D100
04B00C3000
0A10740000
1100200000
ENDCHAR
STARTCHAR numbersign
ENCODING 35
SWIDTH 289 0
DWIDTH 10 0
BBX 11 12 0 0
BITMAP
000000200010
000007501920
00015900A300
00CDFFEFFFB0
0003800B1000
000920380000
002A11920000
4DDFEEEDB000
009105400000
008008000000
044016000000
060051000000
ENDCHAR
STARTCHAR dollar
ENCODING 36
SWIDTH 269 0
DWIDTH 10 0
BBX 10 17 0 -3
BITMAP
0000000040
0000000090
0000000540
0000253DA1
0001B05594
0005C0A071
0004F77010
0000BF1000
00002FB000
000067F600
061090A900
3904507800
9C0900A200
1ABA352000
0081000000
0080000000
0220000000
ENDCHAR
STARTCHAR percent
ENCODING 37
SWIDTH 388 0
DWIDTH 14 0
BBX 14 17 0 -3
BITMAP
00000000000060
00000000000590
00000000002B00
0018CC1000B200
01700C60085000
08100960480000
1C000B31B00000
4D003A0A219C80
3FA8B1751946F2
08C913909100D3
00000A13A000C1
00008306900280
00047006D23910
001A0001CEA100
00A20000000000
06600000000000
05000000000000
ENDCHAR
STARTCHAR ampersand
ENCODING 38
SWIDTH 507 0
DWIDTH 18 0
BBX 18 17 0 0
BITMAP
00000006DD20000000
000000651B90000000
000001800690000000
000006600860000000
000008600A10000000
000009606500000000
000007855000000000
000006D20000000000
000175F10000007DE5
003910D5000009635B
03C1008B0000730000
0D50002F3004400000
3F20000AC016000000
4F400002E960000000
1FA000004FB2000000
07FB310495EE842283
005CFEC60018CEEB30
ENDCHAR
STARTCHAR quotesingle
ENCODING 39
SWIDTH 120 0
DWIDTH 4 0
BBX 5 5 1 10
BITMAP
0009D0
004E20
00D400
086000
170000
ENDCHAR
STARTCHAR parenleft
ENCODING 40
SWIDTH 250 0
DWIDTH 9 0
BBX 9 27 3 -4
BITMAP
0000000380
0000003A00
000002C100
00000C5000
00007A0000
0002E20000
0008A00000
001E300000
008D000000
00D8000000
03F4000000
07E0000000
0CA0000000
1F70000000
3F40000000
5F10000000
7D00000000
8B00000000
8A00000000
8900000000
8800000000
7800000000
5900000000
3A00000000
0C00000000
0A10000000
0420000000
ENDCHAR
STARTCHAR parenright
ENCODING 41
SWIDTH 276 0
DWIDTH 10 0
BBX 9 27 1 -4
BITMAP
0000004600
0000001B00
0000000C00
0000000B20
0000000A40
0000000960
0000000A70
0000000A70
0000000C70
0000000D60
0000001F50
0000003F30
0000006F10
0000009D00
000000CA00
000001F500
000006F100
00000BB000
00001F5000
00006C0000
0000D50000
0005C00000
001D300000
0098000000
04B0000000
2A10000000
7100000000
ENDCHAR
STARTCHAR asterisk
ENCODING 42
SWIDTH 188 0
DWIDTH 7 0
BBX 7 6 1 9
BITMAP
00067000
000B1000
4B7A6B60
008A4200
09458000
37008100
ENDCHAR
STARTCHAR plus
ENCODING 43
SWIDTH 301 0
DWIDTH 11 0
BBX 9 9 1 1
BITMAP
0000034000
00000A3000
00001D0000
0000680000
1CFFFFFF90
0101D00000
0005800000
000A300000
0007000000
ENDCHAR
STARTCHAR comma
ENCODING 44
SWIDTH 112 0
DWIDTH 4 0
BBX 4 5 0 -3
BITMAP
02C0
04F1
03B0
0820
6200
ENDCHAR
STARTCHAR hyphen
ENCODING 45
SWIDTH 245 0
DWIDTH 9 0
BBX 7 1 1 5
BITMAP
5BCDEEC0
ENDCHAR
STARTCHAR period
ENCODING 46
SWIDTH 112 0
DWIDTH 4 0
BBX 3 3 1 0
BITMAP
0600
9E10
C600
ENDCHAR
STARTCHAR slash
ENCODING 47
SWIDTH 210 0
DWIDTH 8 0
BBX 15 25 -1 -2
BITMAP
0000000000000360
0000000000000B10
0000000000006600
000000000001B000
0000000000084000
00000000002A0000
0000000000A20000
0000000005700000
000000000B000000
0000000075000000
00000001A0000000
0000000930000000
0000003900000000
000000A100000000
0000057000000000
00000B0000000000
0000750000000000
0001A00000000000
0009300000000000
0039000000000000
00B1000000000000
0570000000000000
0C10000000000000
7600000000000000
6000000000000000
ENDCHAR
STARTCHAR zero
ENCODING 48
SWIDTH 349 0
DWIDTH 13 0
BBX 10 11 2 0
BITMAP
00017AEE80
00361005E7
025000008D
080000004F
560000003E
B30000004B
E300000076
F5000001B0
DB00000920
6F9325A300
07EFD71000
ENDCHAR
STARTCHAR one
ENCODING 49
SWIDTH 189 0
DWIDTH 7 0
BBX 8 11 1 0
BITMAP
001359D3
06DACF70
0001EC00
0007F300
000DA000
005F2000
00CB0000
04F40000
0AD00000
1F900000
7D200000
ENDCHAR
STARTCHAR two
ENCODING 50
SWIDTH 277 0
DWIDTH 10 0
BBX 10 11 0 0
BITMAP
000029EEA1
00029317F8
00080000CB
00140000C9
00000001E2
0000000A60
0000019500
0000482000
0028500000
07EA643491
8458CEEB30
ENDCHAR
STARTCHAR three
ENCODING 51
SWIDTH 253 0
DWIDTH 9 0
BBX 12 17 -2 -6
BITMAP
0000018ADC40
000018100AE1
0000100004F4
0000000005F1
000000001D80
00000017D700
000049E91000
0001513AC200
00000000CC00
000000006F30
000000004F30
000000004F10
000000007B00
00000001D200
5000001B4000
C61026B30000
4DFDA5000000
ENDCHAR
STARTCHAR four
ENCODING 52
SWIDTH 363 0
DWIDTH 13 0
BBX 16 19 1 0
BITMAP
0000000000000003
00000000000003B3
0000000000007E30
00000000001AF600
000000000389B000
00000000652E2000
0000000830A90000
0000018202E10000
0000181009900000
000191001E300000
001A10007C000000
01A10000D6002000
0BC75315E1157000
4557ACEFFEC60000
0000002F40000000
0000008E00000000
000000DA00000000
000003F600000000
000007B100000000
ENDCHAR
STARTCHAR five
ENCODING 53
SWIDTH 250 0
DWIDTH 9 0
BBX 14 18 -3 -6
BITMAP
00000000000026
00000006FFFFF5
0000001B654310
00000063000000
000000A0000000
000002D1000000
000003FE400000
0000002CF40000
00000001DD0000
000000005F4000
000000001F7000
000000000E6000
000000000F3000
000000004C0000
00000000A40000
20000007700000
5A301495000000
09EEC710000000
ENDCHAR
STARTCHAR six
ENCODING 54
SWIDTH 296 0
DWIDTH 11 0
BBX 15 18 1 0
BITMAP
0000000004ADEB10
0000000285202980
0000004600000040
0000055000000000
0000380000000000
0001B00000000000
0009500000000000
003C058710000000
00B8CBCFC0000000
02FA1009F4000000
08E10002F6000000
0C800000F6000000
1F400001F2000000
2F300004C0000000
2F40000940000000
1F70003800000000
0CE5267000000000
03CEB40000000000
ENDCHAR
STARTCHAR seven
ENCODING 55
SWIDTH 326 0
DWIDTH 12 0
BBX 15 17 -1 -6
BITMAP
000009DFEDCA7940
00006FFFFFFFFB00
0000C61000139200
0003600000027000
0007000000090000
0001000000820000
0000000007400000
0000000057000000
00000003A0000000
0000003B10000000
000002C200000000
00002D4000000000
0001D60000000000
001C900000000000
00AC000000000000
07F3000000000000
3D50000000000000
ENDCHAR
STARTCHAR eight
ENCODING 56
SWIDTH 305 0
DWIDTH 11 0
BBX 12 18 1 0
BITMAP
000000002100
0000007BCFA0
00000B4004F8
00006B00009B
0000AB000089
00009E1000C4
00004F800770
00000AF78500
000006EF4000
0006942ED100
00A60004F900
09900000CE00
3F2000008F00
7F0000006D00
8F1000008800
6F600001C100
0DE7214A2000
02AEEC700000
ENDCHAR
STARTCHAR nine
ENCODING 57
SWIDTH 304 0
DWIDTH 11 0
BBX 13 16 -2 -5
BITMAP
000000046BD600
00000150006F40
00000900000EA0
00006700000CA0
0000D400000D90
0002F200001F70
0005F200008F40
0005F40002EE00
0001ED3148D900
00004CED73F200
00000000099000
000000002D1000
00000000A30000
00000019400000
661026A2000000
1BFEB500000000
ENDCHAR
STARTCHAR colon
ENCODING 58
SWIDTH 156 0
DWIDTH 6 0
BBX 5 9 0 0
BITMAP
0007D0
000E50
000000
000000
000000
000000
000000
0AA000
3D3000
ENDCHAR
STARTCHAR semicolon
ENCODING 59
SWIDTH 156 0
DWIDTH 6 0
BBX 6 12 -1 -3
BITMAP
00007D
0000D5
000000
000000
000000
000000
000400
008D00
006C00
007600
019000
171000
ENDCHAR
STARTCHAR less
ENCODING 60
SWIDTH 301 0
DWIDTH 11 0
BBX 9 7 2 2
BITMAP
0000004960
00028D9300
16CD710000
DE60000000
2991000000
0029600000
0000383000
ENDCHAR
STARTCHAR equal
ENCODING 61
SWIDTH 301 0
DWIDTH 11 0
BBX 10 5 1 3
BITMAP
0000010000
06FFFFFFE2
0000000000
0000000000
5EFFFFFE30
ENDCHAR
STARTCHAR greater
ENCODING 62
SWIDTH 301 0
DWIDTH 11 0
BBX 9 7 1 2
BITMAP
0183000000
005CB40000
00005DB400
0000007F80
00005AB500
049B710000
A820000000
ENDCHAR
STARTCHAR question
ENCODING 63
SWIDTH 285 0
DWIDTH 10 0
BBX 12 19 2 0
BITMAP
00000039B930
000008A8AFF3
0000840003FA
0001800000AC
00000000008B
0000000000A8
0000000002E2
000000001C50
00000004C400
000001981000
000069200000
000950000000
008800000000
00E700000000
00AD30000000
000000000000
000000000000
6E0000000000
D60000000000
ENDCHAR
STARTCHAR at
ENCODING 64
SWIDTH 492 0
DWIDTH 18 0
BBX 16 16 1 -3
BITMAP
0000016BDFEB4000
00005B731027E900
0007800000002D70
00580000000003E0
01B0000336A900B3
0750017001E40084
0C10092008B00082
1E002D002F600070
2D006C008F100140
2E006E274F000300
1F202DA12F531000
0C80000003300000
05F3000000000700
00AE400000007200
000AFA5324792000
000039BCB9300000
ENDCHAR
STARTCHAR A
ENCODING 65
SWIDTH 996 0
DWIDTH 36 0
BBX 36 23 1 0
BITMAP
000000000000000000016ADEFEDB86300000
0000000000000000004941001246ADFEA610
00000000000000000550000000000026BEE1
000000000000000025000000000000036F50
00000000000000006000000000000052D900
00000000000000006000000000001716E100
0000000000000003300000000002700D7000
0000000000000000000000000038005E1000
000000000000000000000000038000B90000
000000000000000000000000480001F30000
000000000000000000000004900005E00000
00000000000000000000004900111AA00000
000000000000000007EFFFFFEEEDDF700000
000000000000000000001B3000000F400000
01800000000000000000A30000002F200000
0820000000000000000A300000005F000000
0B0000000000000001A3000000006F000000
2D000000000000002A30000000007E000000
2F20000000000005B100000000007F000000
1FA00000000002A80000000000007F100030
0AFB20000004AC300000000000005F600530
02DFFCA89BEC60000000000000001EFAB500
0029DFEDB830000000000000000005ED4000
ENDCHAR
STARTCHAR B
ENCODING 66
SWIDTH 638 0
DWIDTH 23 0
BBX 23 25 1 0
BITMAP
000000000000000000120000
000000000000000027400000
000000000016ABCEEC820000
000000000673007404BF9000
00000002710005800008F900
0000001600001C100000BF30
000000600000960000004F70
000002200001E10000002F80
000000000008A00000003F50
00000000000D500000009D00
00000000003F10000006E300
00000000008B002BB9A92000
0000000000C70015CF810000
0000000002F2000006FC1000
0000000007B00000005F9000
000000000C400000000AF100
000000003C0000000004F600
00000000A40000000001F800
00000003900000000000F800
14000029000000000001F700
AFA44770000000000004F200
07FF600000000000000BA000
003BF92000000000008C1000
00004BFA510000003A910000
000000269CBA988872000000
ENDCHAR
STARTCHAR C
ENCODING 67
SWIDTH 557 0
DWIDTH 20 0
BBX 21 23 2 0
BITMAP
0000000001689ABCDC9400
000000017730000015CF80
0000006710000000000B80
0000085000000000000730
0000A40000000000000700
0008800000000000000000
004D000000000000000000
00C7000000000000000000
05F1000000000000000000
0BC0000000000000000000
1F80000000000000000000
4F70000000000000000000
6F50000000000000000000
7F50000000000000000000
7F60000000000000000000
6F80000000000000000000
3FC0000000000000030000
0EF2000000000000160000
07F9000000000000820000
00CF400000000002B00000
002DE4000000001D500000
00019F92000005DD000000
0000027BBA99A951000000
ENDCHAR
STARTCHAR D
ENCODING 68
SWIDTH 799 0
DWIDTH 29 0
BBX 28 24 1 0
BITMAP
0000000000000000000000450000
0000000006ADEFEC840059300000
00000004A6201259DFCB80000000
000000660000000005FFB2000000
00000360000000000A84DE400000
00000800000000005D001CF40000
0000240000000000D50001CE3000
0000500000000006D000001DD100
000000000000000C70000004F800
000000000000003F200000009F20
000000000000008C000000002F90
00000000000000E6000000000AE0
00000000000004F10000000005F4
00000000000009A00000000001F7
0000000000001E400000000000D8
0000000000006D000000000000C8
000000000000C6000000000000C6
000000000004D0000000000000E3
00000000000C40000000000002D0
0000000000690000000000000860
018CDCB844B00000000000002A00
3821247BFFB51000000000029100
C400002765AEFB74210013770000
9EA98750000047ADEFEDA7100000
ENDCHAR
STARTCHAR E
ENCODING 69
SWIDTH 494 0
DWIDTH 18 0
BBX 18 23 2 0
BITMAP
0000000003789BD940
000000009500002AF7
0000000B40000000A8
0000006C0000000062
000000AB0000000040
000000AE0000000000
0000005F9000000000
00000007FC50000000
00000026CFE3000000
000028731000000000
000670000000000000
007700000000000000
04C000000000000000
0D5000000000000000
5F1000000000000000
9E0000000000000000
CE0000000000002100
CF0000000000007100
BF300000000000A000
6F9000000000076000
0CF4000000005E1000
02CE6000003AD40000
0006BDA99973000000
ENDCHAR
STARTCHAR F
ENCODING 70
SWIDTH 626 0
DWIDTH 23 0
BBX 29 23 1 0
BITMAP
000000000000059CEFEDB853100000
0000000000049631123468AEFFFFE0
000000000055000000000295135620
000000000430000000002D20000000
00000000070000000000C600000000
00000000220000000005E000000000
0000000000000000000C9000000000
0000000000000000002F4000000000
0000000000000000006E0000000000
000000000000000000BA0000000000
000000000000000001F50110000000
00000000001AFFFFFFFEDDB0000000
000000000000000008C00000000000
00000000000000000D600000000000
00110000000000004E000000000000
0180000000000000B6000000000000
0A20000000000003D0000000000000
1E0000000000000C30000000000000
3F0000000000007700000000000000
1F5000000000068000000000000000
0BE300000001870000000000000000
02EFA532358A300000000000000000
0029DFEDB730000000000000000000
ENDCHAR
STARTCHAR G
ENCODING 71
SWIDTH 571 0
DWIDTH 21 0
BBX 27 30 -2 -7
BITMAP
000000000000000000038CEFEA20
0000000000000000039731027ED0
00000000000000006500000006F0
00000000000000181000000003B0
0000000000000170000000000640
0000000000000900000000000800
0000000000008300000000000100
0000000000049000000000000000
00000000000C2000000000000000
00000000005B0000000000000000
0000000000C80000000000000000
0000000002F40000000000000000
0000000006F20000000000000000
0000000009F10000000000000000
000000000BF00000000038000000
000000000CF000000000DC000000
000000000BF200000004F8000000
0000000007F70000002DF3000000
0000000001EE200003ACC0000000
00020000003CE978961E60000000
0086000000002442005E10000000
07A000000000000000C700000000
0E5000000000000004D000000000
3F300000000000000B4000000000
5F40000000000000690000000000
3F70000000000003B00000000000
0ED000000000002A100000000000
06F8000000000580000000000000
007F920000048400000000000000
00039CBA98740000000000000000
ENDCHAR
STARTCHAR H
ENCODING 72
SWIDTH 865 0
DWIDTH 31 0
BBX 41 25 1 0
BITMAP
000000000000000000000000000000000000024200
000000000000000000000000000000000004CFFF30
00000000000049CEFECA6100000000000189421960
00000000002A73112359FB00000000001920000330
000000000191000000195000000000018100000000
000000000710000000A50000000000081000000000
000000000700000005C00000000000740000000000
00000000060000000C600000000003900000000000
00000000050000004F10000000000B200000000000
0000000000000000AB000000000069000000000000
0000000000000000E70000000000D2000000000000
0000000000000004F20000000006B0000000000000
0000000000000009C0000000000D50000000000000
000000000000000E70000000004E00000000000000
000000037ADEEEFFC976420000A900000000000000
000017C95310006D3569CEEB96F400000000000000
0004B500000000C600000037BEFD70000000000000
00691000000003E10000000009B200000000000000
03B0000000000A60000000000D7000000000000000
0B30000000003C00000000002F3000000000000000
1E0000000000B200000000006F0000000000000000
2F00000000084000000000009D0005000000000000
1F4000000084000000000000BE0072000000000000
09E610026920000000000000AFCC40000000000000
008DFDC830000000000000004EC300000000000000
ENDCHAR
STARTCHAR I
ENCODING 73
SWIDTH 554 0
DWIDTH 20 0
BBX 26 23 1 0
BITMAP
0000000000000000000016ACE6
00000000000000000018C89B40
000000000000000006A405A000
000000000000000086002D1000
00000000000000083000A80000
00000000000000720002F20000
00000000000003400008C00000
0000000000000700000D800000
0000000000005200002F300000
0000000000007000006E000000
000000000000700000A9000000
000000000001600001E4000000
000000000001600005D0000000
00000000000070000B60000000
00000000000080002E10000000
00012000000028009600000000
0047100000000388D520000000
04A000000000000A2000000000
0D400000000000740000000000
2F400000000006500000000000
1FB00000000183000000000000
07FC5101259710000000000000
004BDFEDA61000000000000000
ENDCHAR
STARTCHAR J
ENCODING 74
SWIDTH 634 0
DWIDTH 23 0
BBX 30 30 0 -7
BITMAP
000000000000000000000000159CE6
000000000000000000000017C99C50
0000000000000000000005A404A000
0000000000000000000076001D1000
000000000000000000073000980000
000000000000000000620002F20000
000000000000000002400007C00000
00000000000000000700000C800000
00000000000000004300002F400000
00000000000000007000006E000000
0000000000000000700000AB000000
0000000000000001600000E6000000
0000000000000001600004F1000000
0000000000000000800009A0000000
000000000000000091000E40000000
00000000000000003A004D00000000
000000000300000004B8CB50000000
00000036520000000003E200000000
000016300000000000078000000000
0004600000000000000D1000000000
005500000000000000770000000000
037000000000000002B00000000000
0B000000000000000A200000000000
680000000000000074000000000000
C50000000000000460000000000000
E50000000000004600000000000000
E80000000000065000000000000000
AE2000000003820000000000000000
2EE620024795000000000000000000
029DFEDB7300000000000000000000
ENDCHAR
STARTCHAR K
ENCODING 75
SWIDTH 936 0
DWIDTH 34 0
BBX 35 23 1 0
BITMAP
000000000000037BDEFDB83000000039DE60
000000000002AA6423569EE400002AB76BC0
0000000000492000000039200005B30001B0
00000000047000000003C100008700000040
0000000008000000000C5000094000000000
0000000052000000003E0000920000000000
0000000070000000009A0009200000000000
000000006000000000D70073000000000000
000000006000000002F30640000000000000
000000006000000006F14600000000000000
000000006000000009D0D500000000000000
00000000100000000C90B900000000000000
00000000000000001F607E00000000000000
00000000000000004F202F40000000000000
00060000000000008B000D90000000000000
0092000000000000D50009E0000000000000
0760000000000004C00003F6000000000000
0D2000000000000B300000CC000000000000
2F100000000000670000005F600000000000
2F500000000004800000000CE20000000000
0EC100000000760000000002ED2000041000
05FD510014892000000000004EE843770000
004AEFEDB720000000000000029DEC600000
ENDCHAR
STARTCHAR L
ENCODING 76
SWIDTH 657 0
DWIDTH 24 0
BBX 25 23 1 0
BITMAP
000000000000000000028CEC20
0000000000000000005EFFFFB0
000000000000000007D6202BF0
00000000000000005B100001F0
0000000000000002D1000000B0
000000000000000A5000000070
000000000000003D0000000000
00000000000000A60000000000
00000000000002F10000000000
00000000000008B00000000000
0000000000000D600000000000
0000000000003F200000000000
0000000000008C000000000000
000000000000C8000000000000
000000000002F3000000000000
000000000006D0000000000000
00000000000C70000000000000
00000000003E10000000000000
0014420000A700000000000000
05557AD944C000000000041000
A3000016DF8100000000270000
DA100027539EB6411026910000
3CEBA86100017BDEEDA5000000
ENDCHAR
STARTCHAR M
ENCODING 77
SWIDTH 1219 0
DWIDTH 44 0
BBX 46 23 1 0
BITMAP
0000000000000000049DEFEDB963000000000000000195
0000000000000002973101247ADFEB7200000000006E70
00000000000000281000000000026AEFA000000018E800
000000000000007000000000000000AD100000018AC000
000000000000043000000000000006F5000000275E2000
00000000000006000000000000002BD000000271D70000
00000000000006000000000000008C7000002707D00000
00000000000002000000000000065E100002701E600000
000000000000000000000000004699000018006E000000
0000000000000000000000000180E400008000C8000000
0000000000000000000000000815E000081003F3000000
000210000000000000000000820AA000720007D0000000
005600000000000000000006500E500450000C90000000
03A000000000000000000047004F102700000F50000000
0A5000000000000000000480008D009000003F30000000
0F400000000000000000490000C9073000005F10000000
2F400000000000000004900000F6370000007F00000000
2F600000000000000068000003F3900000008E00000000
0EB00000000000001960000006F6300000009F00000000
09F6000000000005B300000009D9000000008F20003000
02EF6000000005C8100000000BF2000000006F70062000
003EFD85457AE920000000000D90000000002FF9B40000
00018CEFEC951000000000000C100000000005EC300000
ENDCHAR
STARTCHAR N
ENCODING 78
SWIDTH 990 0
DWIDTH 36 0
BBX 45 23 1 0
BITMAP
00000000000017CEEC93001000000000000000003BEC20
000000000003B64358DFA2900000000000000005EA9DB0
00000000003800000005DF90000000000000005D3001B0
000000000060000000001BF500000000000003C1000040
00000000000000000000099F4000000000000B20000000
000000000000000000000B07E200000000007500000000
000000000000000000000B00AC0000000001A000000000
0000000000000000000028001D90000000073000000000
00000000000000000000740004F3000000080000000000
00000000000000000000A00000AC000000630000000000
000000000000000000019000002F500000800000000000
0000000000000000000540000009C00003500000000000
0011000000000000000900000002F40007100000000000
00A1000000000000003600000000AB0007000000000000
07500000000000000090000000004F3025000000000000
0D100000000000000450000000000D9062000000000000
2E0000000000000019000000000007E070000000000000
3F1000000000000091000000000002F470000000000000
1F6000000000000930000000000000C970000000000000
0BE30000000002B4000000000000007F50000000000000
03FE600000017D30000000000000003F40000000000000
004EFEA989CF9100000000000000000E20000000000000
00018CEFEB720000000000000000000910000000000000
ENDCHAR
STARTCHAR O
ENCODING 79
SWIDTH 606 0
DWIDTH 22 0
BBX 22 23 2 0
BITMAP
00000000016BDFED820000
0000000189521137DF7000
00000047100000001AF700
000005400000000000BF30
0000640000000000002FA0
0003700000000000000AF0
001A0000000000000005F4
00850000000000000002F5
01C00000000000000001F6
07900000000000000000F6
0C500000000000000001F4
1F300000000000000003F2
4F200000000000000005D0
6F10000000000000000980
7F10000000000000000D20
6F30000000000000005800
5F7000000000000000B100
1FC0000000000000074000
0BF4000000000000460000
03FD100000000004600000
007FD30000000174000000
0006EFA520138710000000
000028CEFEB72000000000
ENDCHAR
STARTCHAR P
ENCODING 80
SWIDTH 783 0
DWIDTH 28 0
BBX 31 25 1 0
BITMAP
00000000000000000000000002000000
00000000000000000000000373000000
0000000000000000048BCCFEB7200000
0000000000000005962006804BF70000
000000000000018400003D00006F9000
00000000000007100000B6000007F500
00000000000060000004E1000000DD00
0000000000042000000AA00000007F30
0000000000060000001F500000004F50
0000000000340000006F100000003F60
000000000000000000AB000000004F40
000000000000000001E7000000006F10
000000000000000155F200000000CA00
000000000000000079C000000006E200
00000000000000003F600000005E4000
00240000000000004FB400004AC30000
0260000000000000A829CCBB94000000
0800000000000002E100000000000000
0A000000000000097000000000000000
2A0000000000003C0000000000000000
2D000000000000B20000000000000000
0E500000000009400000000000000000
07E30000000193000000000000000000
00AF9421259810000000000000000000
0005BEFEB72000000000000000000000
ENDCHAR
STARTCHAR Q
ENCODING 81
SWIDTH 563 0
DWIDTH 20 0
BBX 26 29 2 -6
BITMAP
00000000167889B81000000000
0000000451000018E500000000
00000061000000007F50000000
00000700000000000CE1000000
000071000000000005F7000000
000360000000000001FB000000
000A10000000000000DE000000
003900000000000000BF000000
009600000000000000BE000000
00D300000000000000CD000000
01F100000000000000EA000000
02F000000000000002F6000000
03F100000000000006F1000000
03F30000000000000C90000000
00F70000000000006E10000000
009E100000000001E600000000
002EC4001000000B8000000000
0002BEE91000009A0000000000
0000000000001A800000000000
000000000003B6000000000000
00000000029910000000000000
28620137982000000000000000
69CFFD63000000000000000000
00027DD7100000000000000000
0000005CE71000000000000000
000000005CE810000000000000
00000000004BF9300000000071
0000000000003AFC7421126920
0000000000000016BDFEDA5000
ENDCHAR
STARTCHAR R
ENCODING 82
SWIDTH 854 0
DWIDTH 31 0
BBX 30 25 1 0
BITMAP
000000000000000000000000200000
000000000000000000000066100000
0000000000000000159BCDDEB40000
00000000000000288410B3019F7000
00000000000006500008900006F500
0000000000017100002E100000BD00
0000000000170000009A0000005F30
000000000060000001E40000002F50
000000000000000006E00000002F30
00000000000000000CA00000004E00
00000000000000001F600000009700
00000000000000006F10000004B000
0000000000000000AC000001780000
0000000000000001E707C988300000
0000000000000005F10BC000000000
000000000000000AA007F000000000
002400000000001F3004F300000000
017000000000007A0001F700000000
08000000000001D20000BC00000000
190000000000087000006F20000000
3900000000003A0000001E90000000
2C0000000002A100000009F2000000
0E50000000491000000001ED100005
06F942236A6000000000003EE73373
004CFEDA5100000000000002AEEA20
ENDCHAR
STARTCHAR S
ENCODING 83
SWIDTH 480 0
DWIDTH 17 0
BBX 18 23 1 0
BITMAP
000000000003ADED60
0000000000671016F7
00000000037000006D
000000000B2000003B
000000000E10000053
000000000F40000020
000000000DB0000000
0000000008F4000000
0000000001ED100000
00000000006F900000
00000000000AF40000
000000000001ED1000
0000000000005F7000
0000000000000CE100
00010000000004F500
00820000000000E700
08500000000000C800
1E200000000000B600
2F300000000000D200
1F8000000000049000
0AF5000000002A1000
01CF93000027810000
0005ADEDCA72000000
ENDCHAR
STARTCHAR T
ENCODING 84
SWIDTH 577 0
DWIDTH 21 0
BBX 29 23 1 0
BITMAP
000000000027BDEFEEDCA752000000
0000000019B6210113469CEFEA6200
00000002B400000000000008EDFE10
0000000A20000000000001B7101200
000000540000000000001D40000000
00000080000000000000B600000000
00000160000000000007C000000000
0000033000000000001E5000000000
0000033000000000007D0000000000
000001100000000000E70000000000
000000000000000005F20000000000
00000000000000000AC00000000000
00000000000000001F700000000000
00000000000000006F100000000000
0000000000000000B9000000000000
0040000000000003F2000000000000
056000000000000A90000000000000
0D2000000000004D10000000000000
2F200000000001C300000000000000
2F70000000001B4000000000000000
0DE300000003B40000000000000000
04FF953346A9100000000000000000
0029DFEDA610000000000000000000
ENDCHAR
STARTCHAR U
ENCODING 85
SWIDTH 752 0
DWIDTH 27 0
BBX 29 23 2 0
BITMAP
0000016BDFFDB73000000000006D30
00005B743347AEF40000000001E800
00086000000008500000000007E100
0064000000008400000000000E6000
0260000000085000000000006D0000
080000000059000000000000D70000
0600000002C1000000000006E10000
430000000B4000000000000D900000
510000005B0000000000006F300000
70000000D3000000000000DC000000
51000006C0000000000006F7000000
3200000C6000000000001BF2000000
0000002F2000000000007AC0000000
0000007D0000000000027D70000000
000000BA0000000000083F40000000
000000E80000000000537E00000000
000001F6000000000160AB00000000
000002F6000000000700D800000000
000003F6000000006100F600000000
000002F8000000062001F600040000
000000ED000001620001F800720000
0000007FB30267100000EFAB400000
00000008EED9300000005EC3000000
ENDCHAR
STARTCHAR V
ENCODING 86
SWIDTH 661 0
DWIDTH 24 0
BBX 25 23 2 0
BITMAP
000005BEEB40000000006EC400
0000A9435AF500000004FFFF30
00093000005F3000000913BFA0
005400000008C0000011000DE0
008000000001E50000000007F0
0520000000009A0000000005E0
0700000000004E0000000005C0
1500000000001F200000000680
5100000000000E400000000930
1000000000000C500000000900
0000000000000B600000004200
0000000000000B600000004000
0000000000000C600000030000
0000000000000D500000110000
0000000000000E300000000000
0000000000001F100000000000
0000000000004E000000000000
0000000000007B000000000000
000000000000B9000000000000
000000000000E5100000000000
000000000005F4100000000000
00000000000AB1000000000000
00000000001A00000000000000
ENDCHAR
STARTCHAR W
ENCODING 87
SWIDTH 822 0
DWIDTH 30 0
BBX 32 23 2 0
BITMAP
000028DEEB3000000000000000005EA0
0006B756AFF400000000011000019AF4
0065000005FD000000001C30000500E7
03600000007F30000000B400000000B8
07000000000E7000000A6000000000B7
160000000009A000007E0000000000C4
430000000006B00003BA0000000000E1
610000000004C00017B90000000003B0
300000000002C00071C8000000000950
000000000002B00340C7000000001B00
000000000003A00700C8000000009300
000000000004805100B9000000048000
000000000006515000AA0000001A0000
0000000000082600009B000000810000
00000000000A2500008D000007200000
00000000000A7000007E000063000000
0000000000395000005F000450000000
0000000000790000004F103600000000
0000000000B50000003F227000000000
0000000001D00000003F290000000000
0000000007700000003F920000000000
000000000C100000003F500000000000
000000001A0000000049000000000000
ENDCHAR
STARTCHAR X
ENCODING 88
SWIDTH 813 0
DWIDTH 29 0
BBX 30 23 1 0
BITMAP
0000000000003DB00000000016BEE2
000000000003EFF500000005DDBDF6
00000000001A34F90000009B3000C6
00000000007200BC00000A60000093
000000000170007E0000A400000090
000000000000004F10075000000020
000000000000002F30370000000000
000000000000000E60900000000000
000000000000000C85200000000000
0000000000000009B7000000000000
0000000000000006F1000000000000
0000000000000004F3000000000000
0000000000000006E7000000000000
0000000000000033AC000000000000
00000000000000706F200000000000
00000000000006101F800000000000
00310000000035000BE10000000000
009000000002700005F90000000000
056000000019000000DF4000000310
0C50000002A10000004FE400000800
2FA000017A1000000008FF9312A400
1EFC88AE7000000000009FFFFF9000
04BEEC8100000000000004BEE80000
ENDCHAR
STARTCHAR Y
ENCODING 89
SWIDTH 662 0
DWIDTH 24 0
BBX 32 28 0 -5
BITMAP
00000000000006DE70000000000002C4
000000000001952CD000000000000AD0
0000000000081009D000000000002F60
000000000002000AB00000000000AD00
000000000000000D800000000003F700
000000000000002F30000000000CE100
000000000000007E00000000005F7000
00000000000000C90000000001DE0000
00000000000002F40000000008F60000
00000000000006E0000000003FD00000
0000000000000B9000000000BF500000
0000000000001F5000000006DC000000
0000000000004F1000000048F3000000
0000000000007E000000034EA0000000
0000027700009C000000347E20000000
000296100000AD00000441E700000000
0058000000007F61148209C000000000
04A00000000019EEB5003E2000000000
0D200000000000000000D70000000000
5D000000000000000008A00000000000
9A00000000000000004D100000000000
BA0000000000000002D2000000000000
BC000000000000001C30000000000000
8F10000000000001B400000000000000
4F8000000000002B3000000000000000
0BF60000000007910000000000000000
01CFB5201259A4000000000000000000
0006BEFEDB7200000000000000000000
ENDCHAR
STARTCHAR Z
ENCODING 90
SWIDTH 625 0
DWIDTH 23 0
BBX 25 23 1 0
BITMAP
000000000017CEFEDA61000000
0000000001C7201247BFA41660
000000000A30000000027CFA00
00000000270000000000098000
00000000610000000000A70000
0000000060000000001A500000
000000000000000001B4000000
00000000000000001B30000000
0000000000000002B200000000
000000000000003A1000000000
00000000000003A10000000000
00000000000049000000000000
00000000000580000000000000
00000000006700000000000000
00000000075000000000000000
00000000840000000000000000
00000008300000000000330000
00000092000000000000800000
00001920000000000006400000
00019100000000000058000000
002DEDB9753110025BA0000000
02DEDFFFFFFFFFFFF900000000
1C500147ACEFFED93000000000
ENDCHAR
STARTCHAR bracketleft
ENCODING 91
SWIDTH 318 0
DWIDTH 11 0
BBX 14 25 2 -3
BITMAP
0000001EB88892
0000004F400000
0000008E000000
000000CB000000
000000F7000000
000004F3000000
000007E0000000
00000BA0000000
00000E60000000
00003F20000000
00007D00000000
0000BA00000000
0000E600000000
0004F200000000
0007D000000000
000BA000000000
001F6000000000
004F3000000000
008E0000000000
00CB0000000000
01F80000000000
05F50000000000
09F20000000000
0DE00000000000
1FE98960000000
ENDCHAR
STARTCHAR backslash
ENCODING 92
SWIDTH 212 0
DWIDTH 8 0
BBX 6 25 1 -2
BITMAP
800000
B00000
920000
640000
370000
1A0000
0B0000
0A1000
073000
046000
019000
00B000
00A000
008300
005600
002900
000B00
000B00
000830
000560
000290
0000C0
0000B1
000084
000032
ENDCHAR
STARTCHAR bracketright
ENCODING 93
SWIDTH 339 0
DWIDTH 12 0
BBX 14 25 0 -3
BITMAP
00000006999EF1
00000000000EC0
00000000002F80
00000000005F40
00000000008F00
0000000000CB00
0000000000E700
0000000003F300
0000000007E000
000000000BA000
000000000E6000
000000003F3000
000000006E0000
00000000AA0000
00000000E60000
00000003F20000
00000007E00000
0000000BA00000
0000000E600000
0000004F300000
0000008E000000
000000CB000000
000001F7000000
000005F4000000
39888CE1000000
ENDCHAR
STARTCHAR asciicircum
ENCODING 94
SWIDTH 272 0
DWIDTH 10 0
BBX 8 8 1 6
BITMAP
00000100
00000D40
00008F80
0004C6D0
001C21F3
00A400B8
0660006D
1800001B
ENDCHAR
STARTCHAR underscore
ENCODING 95
SWIDTH 356 0
DWIDTH 13 0
BBX 13 2 -1 -2
BITMAP
00011122222200
3BCBA988877710
ENDCHAR
STARTCHAR grave
ENCODING 96
SWIDTH 155 0
DWIDTH 6 0
BBX 5 4 0 11
BITMAP
054000
2EE200
02CC00
000660
ENDCHAR
STARTCHAR a
ENCODING 97
SWIDTH 294 0
DWIDTH 11 0
BBX 10 9 1 0
BITMAP
0004AEEBB3
007B304E90
06B0001D10
2E30008800
8B0002E300
C90008E000
D80047B010
BC1618B260
4E9105E600
ENDCHAR
STARTCHAR b
ENCODING 98
SWIDTH 247 0
DWIDTH 9 0
BBX 18 27 1 0
BITMAP
00000000000017CED4
000000000005C7448C
000000000066000008
000000000630000000
000000004400000000
000000016000000000
000000070000000000
000000540000000000
000000800000000000
000006300000000000
000009000000000000
000064000000000000
0000B0000000000000
000480000000000000
000B30000000000000
002C00000000000000
008800000000000000
00D300000000000000
03E07DD20000000000
08A841D80000000000
0CC100990000000000
1F6000960000000000
5F1000C10000000000
8C0005800000000000
AA0019000000000000
BC1491000000000000
5ED700000000000000
ENDCHAR
STARTCHAR c
ENCODING 99
SWIDTH 203 0
DWIDTH 7 0
BBX 7 9 1 0
BITMAP
00131B40
01100920
07000000
19000000
88000000
C7000000
D7002600
CD478000
4ED60000
ENDCHAR
STARTCHAR d
ENCODING 100
SWIDTH 285 0
DWIDTH 10 0
BBX 22 27 1 0
BITMAP
0000000000000000005CE9
00000000000000001AA67D
0000000000000001920004
0000000000000008100000
0000000000000071000000
0000000000000530000000
0000000000001600000000
0000000000007000000000
0000000000034000000000
0000000000080000000000
0000000000530000000000
0000000000900000000000
0000000005500000000000
000000000B000000000000
0000000049000000000000
00000000A4000000000000
00000001D0000000000000
0000000780000000000000
0004459D30000000000000
0073003E00000000000000
0760008A00000000000000
2D0001E700000000000000
8A0007F300000000000000
C8002AF000000000000000
D70187E021000000000000
CD5918E470000000000000
5EA104E800000000000000
ENDCHAR
STARTCHAR e
ENCODING 101
SWIDTH 206 0
DWIDTH 7 0
BBX 7 9 1 0
BITMAP
0017CC10
01602F50
08106C10
2C786000
8A100000
C7000000
D8000100
CD117400
3DEB3000
ENDCHAR
STARTCHAR f
ENCODING 102
SWIDTH 156 0
DWIDTH 6 0
BBX 30 36 -11 -9
BITMAP
00000000000000000000000017CFC2
000000000000000000000003B867DA
00000000000000000000004700002A
000000000000000000000370000002
000000000000000000001900000000
000000000000000000009200000000
000000000000000000047000000000
0000000000000000000C1000000000
000000000000000000680000000000
000000000000000000D20000000000
000000000000000006A00000000000
00000000000000000C400000000000
00000000000000003E000000000000
000000000000000099000000000000
0000000000000001E4000000000000
0000000000000005D0000000000000
000000000000000B90000000000000
000000000000001F40000000000000
0000000000008EFFEDB90000000000
000000000000008B00000000000000
00000000000000D600000000000000
00000000000003F100000000000000
00000000000008B000000000000000
0000000000000D5000000000000000
0000000000004E1000000000000000
000000000000A80000000000000000
000000000001E20000000000000000
000000000007A00000000000000000
00000000000D200000000000000000
000000000068000000000000000000
0000000001C1000000000000000000
000000000840000000000000000000
010000004700000000000000000000
440000037000000000000000000000
6A1001750000000000000000000000
1BEBA7100000000000000000000000
ENDCHAR
STARTCHAR g
ENCODING 103
SWIDTH 210 0
DWIDTH 8 0
BBX 14 19 -5 -9
BITMAP
00000000000152
000000006AFC20
00000006108D00
00000027004C00
00000085005900
000000B5008200
000000AA159000
0000004EDA2000
000000001B0000
000000003B0000
000000003F2000
005800000D9000
06B0000006F200
0E60000000E600
1F70000000B800
0EB0000000C600
08F5000002E100
00AF83014C5000
0005BEFD920000
ENDCHAR
STARTCHAR h
ENCODING 104
SWIDTH 292 0
DWIDTH 11 0
BBX 19 27 1 0
BITMAP
000000000000017CED50
0000000000004A523AD0
000000000005600000B0
00000000005400000010
00000000045000000000
00000000170000000000
00000000810000000000
00000006400000000000
00000019000000000000
00000083000000000000
000002A0000000000000
00000930000000000000
00001B00000000000000
00008500000000000000
0000D100000000000000
00069000000000000000
000C3000000000000000
002D0000000000000000
0088018DD00000000000
00D4262BC00000000000
03E1502F400000000000
0895008C000000000000
0D9100D6000000000000
3F6001F2000000000000
7E1004F0010000000000
B80005F2710000000000
D20002EA100000000000
ENDCHAR
STARTCHAR i
ENCODING 105
SWIDTH 149 0
DWIDTH 5 0
BBX 7 15 1 0
BITMAP
00000140
00001800
00009200
00036000
00000000
00000000
004B0000
06B60000
23D00000
09800000
1E200000
5D000000
99020000
BA450000
9E600000
ENDCHAR
STARTCHAR j
ENCODING 106
SWIDTH 136 0
DWIDTH 5 0
BBX 19 24 -11 -9
BITMAP
00000000000000000320
00000000000000003600
00000000000000019000
00000000000000072000
00000000000000000000
00000000000000000000
00000000000001870000
00000000000036F40000
00000000000015E00000
00000000000009A00000
0000000000000E600000
0000000000003F100000
0000000000008A000000
000000000000D4000000
000000000004D0000000
00000000000A60000000
00000000002D00000000
00000000009500000000
0000000002B000000000
000000000A2000000000
30000000740000000000
70000007400000000000
A6000483000000000000
2CDB9400000000000000
ENDCHAR
STARTCHAR k
ENCODING 107
SWIDTH 259 0
DWIDTH 9 0
BBX 19 27 1 0
BITMAP
000000000000028DFC30
00000000000079423CA0
00000000000830000390
00000000008100000110
00000000081000000000
00000000630000000000
00000003600000000000
00000009000000000000
00000073000000000000
00000290000000000000
00000920000000000000
00002A00000000000000
00009300000000000000
0001C000000000000000
00076000000000000000
000D1000000000000000
004B0000000000000000
00A60000000000000000
01E249D9000000000000
05C4305E000000000000
09A2008A000000000000
0D812880000000000000
2F3E7100000000000000
6E0B7000000000000000
9A06D000000000000000
C701E601200000000000
D2005EB6000000000000
ENDCHAR
STARTCHAR l
ENCODING 108
SWIDTH 134 0
DWIDTH 5 0
BBX 17 27 1 0
BITMAP
0000000000003AEB00
000000000007EAAE20
000000000088100500
000000000670000000
000000003800000000
00000001A000000000
000000082000000000
000000370000000000
000000900000000000
000004500000000000
00000A000000000000
000056000000000000
0000B1000000000000
000380000000000000
000A20000000000000
002C00000000000000
008700000000000000
00E200000000000000
04C000000000000000
098000000000000000
0E4000000000000000
3F1000000000000000
7D0000000000000000
AA0000000000000000
C90000000000000000
E80410000000000000
9C3000000000000000
ENDCHAR
STARTCHAR m
ENCODING 109
SWIDTH 413 0
DWIDTH 15 0
BBX 14 9 1 0
BITMAP
04D605BC005BD0
33C6513F0514F1
11F6204E4106D0
05E4008C300B80
09C000CB002F20
0E5002F3006C00
4D0008C000A800
A8000D6000B724
D2003D10009D50
ENDCHAR
STARTCHAR n
ENCODING 110
SWIDTH 291 0
DWIDTH 10 0
BBX 11 9 0 0
BITMAP
005D6018EB00
051C6251BA00
001F4302F400
006D4008C000
00BC000D6000
01F5002F2000
06D0005E0010
0B70006E2610
2D20003EB200
ENDCHAR
STARTCHAR o
ENCODING 111
SWIDTH 225 0
DWIDTH 8 0
BBX 7 9 1 0
BITMAP
0019ED20
01822E90
081009B0
29000890
86000A50
C4000A00
D5005400
BB147000
4DD60000
ENDCHAR
STARTCHAR p
ENCODING 112
SWIDTH 261 0
DWIDTH 9 0
BBX 11 19 -2 -9
BITMAP
000006D20000
000054D17E60
0000088207E0
00000D3004F0
00005B0004E0
0000C30007A0
0002B0000C30
000860006900
003E81289000
004EEEB40000
009700000000
00E300000000
03E000000000
079000000000
0B6000000000
0E4000000000
1F2000000000
2F2100000000
2EA600000000
ENDCHAR
STARTCHAR q
ENCODING 113
SWIDTH 269 0
DWIDTH 10 0
BBX 11 18 0 -9
BITMAP
00002557B820
000650009A00
00670002E200
02D0000A8000
0980004F1000
0E5002DA0000
1F4028E30000
0F9677C00000
09D50C600000
00002F100000
00007B000000
0000C7000000
0001F3000000
0005F0000000
0008C0000000
000CA0000000
000E90000000
000DD7200000
ENDCHAR
STARTCHAR r
ENCODING 114
SWIDTH 195 0
DWIDTH 7 0
BBX 8 9 1 0
BITMAP
08E31BE5
61D56161
00E60000
03F30000
06C00000
0A700000
1E200000
5D000000
A7000000
ENDCHAR
STARTCHAR s
ENCODING 115
SWIDTH 188 0
DWIDTH 7 0
BBX 8 9 -1 0
BITMAP
00009887
0006B008
0008C002
0003F500
00009E10
00101E70
07200980
1D000B40
08968600
ENDCHAR
STARTCHAR t
ENCODING 116
SWIDTH 171 0
DWIDTH 6 0
BBX 7 14 1 0
BITMAP
00001700
0000A800
0003E100
000B7000
003E1000
39EFDB50
01E50000
05E10000
0A900000
0E400000
3F100000
6E003100
6F246000
2DD50000
ENDCHAR
STARTCHAR u
ENCODING 117
SWIDTH 299 0
DWIDTH 11 0
BBX 10 9 1 0
BITMAP
003A1002C1
06E5000A90
37C0003F20
0C5000AB00
3E1004C700
8C0024E400
BA0151F300
CC3701F453
7E8000BD40
ENDCHAR
STARTCHAR v
ENCODING 118
SWIDTH 271 0
DWIDTH 10 0
BBX 9 9 1 0
BITMAP
08E6016D50
62D7000880
00D5000A60
00F2001E20
03E0008800
07A005B000
0C606B1000
2F5A800000
6D82000000
ENDCHAR
STARTCHAR w
ENCODING 119
SWIDTH 369 0
DWIDTH 13 0
BBX 13 9 0 0
BITMAP
06E70001204D50
137E000D1058B0
003F104B0000B0
002F11B80000A0
002F15A5000260
003F41C4000610
004E50D3002500
007C00C7046000
0093006EB40000
ENDCHAR
STARTCHAR x
ENCODING 120
SWIDTH 263 0
DWIDTH 9 0
BBX 11 9 -1 0
BITMAP
0002C5008EA0
0006A8084190
001189620030
00006D500000
00003F000000
00004E400000
040178B00010
2A4902E61710
2E91004EA100
ENDCHAR
STARTCHAR y
ENCODING 121
SWIDTH 280 0
DWIDTH 10 0
BBX 18 18 -7 -9
BITMAP
00000000003B0001C2
0000000006D50008C0
0000000025C0001E60
000000000B50008F10
000000002F1003CB00
000000006C0007D500
000000009A0064E000
00000000AB16199000
000000007E800E3000
0000000000005C0000
000000000000B60000
000000000002D10000
081000000009600000
2B000000003B000000
5C00000000B2000000
3F2000000930000000
0BB200039300000000
018DCA960000000000
ENDCHAR
STARTCHAR z
ENCODING 122
SWIDTH 238 0
DWIDTH 9 0
BBX 10 9 -1 0
BITMAP
0003DEDA89
00182249A0
0010003800
0000037000
0000370000
0004700010
0047000070
05E8422750
2959DED600
ENDCHAR
STARTCHAR braceleft
ENCODING 123
SWIDTH 291 0
DWIDTH 10 0
BBX 11 27 3 -4
BITMAP
000000003550
0000005C7310
000005D10000
00000E500000
00004F100000
00008C000000
0000AA000000
0000B8000000
0000D6000000
0001F3000000
0004D0000000
000B50000000
03A600000000
4FB100000000
02E900000000
00AB00000000
00B900000000
01F400000000
07D000000000
0D7000000000
4F2000000000
8C0000000000
C90000000000
E80000000000
CB0000000000
3E8210000000
014630000000
ENDCHAR
STARTCHAR bar
ENCODING 124
SWIDTH 162 0
DWIDTH 6 0
BBX 2 32 2 -9
BITMAP
2A
2A
2A
2A
2A
2A
2A
2A
2A
2A
2A
2A
2A
2A
2A
2A
2A
2A
2A
2A
2A
2A
2A
2A
2A
2A
2A
2A
2A
2A
2A
2A
ENDCHAR
STARTCHAR braceright
ENCODING 125
SWIDTH 285 0
DWIDTH 10 0
BBX 11 27 0 -4
BITMAP
000000353000
00000014AC20
000000000CA0
0000000009C0
000000000AB0
000000000E70
000000003F20
000000009B00
00000001E500
00000005E000
0000000AA000
0000000D8000
0000000BD100
00000002DE30
000000069300
0000006A0000
000001E30000
000005E00000
000008B00000
000009A00000
00000B800000
00000D600000
00002F300000
00007D000000
0001D4000000
126C50000000
663000000000
ENDCHAR
STARTCHAR asciitilde
ENCODING 126
SWIDTH 383 0
DWIDTH 14 0
BBX 12 4 1 4
BITMAP
000000000004
005CEC831176
056126BEEB30
140000000000
ENDCHAR
STARTCHAR space.dup1
ENCODING 160
SWIDTH 150 0
DWIDTH 5 0
BBX 1 1 0 0
BITMAP
00
ENDCHAR
STARTCHAR exclamdown
ENCODING 161
SWIDTH 189 0
DWIDTH 7 0
BBX 10 19 -3 -10
BITMAP
00000001B8
00000006C2
0000000000
0000000100
0000006400
000000A000
0000056000
00000B1000
00003A0000
0000A40000
0002D00000
0009800000
002F200000
008C000000
01E7000000
07F2000000
1ED0000000
6F40000000
7200000000
ENDCHAR
STARTCHAR cent
ENCODING 162
SWIDTH 194 0
DWIDTH 7 0
BBX 8 17 0 -3
BITMAP
00000014
00000072
00000090
00026CE5
00240A95
01806510
0840A000
0E237000
3F091000
5F190000
5F932500
0BF95000
04400000
08000000
27000000
71000000
50000000
ENDCHAR
STARTCHAR sterling
ENCODING 163
SWIDTH 344 0
DWIDTH 12 0
BBX 12 11 0 0
BITMAP
000000005CE7
00000007648D
000000470008
000000D10000
000005B00000
0006ADA76500
00010E100000
00004A000000
0044A2000000
377DFD842371
9B7539DFEA20
ENDCHAR
STARTCHAR currency
ENCODING 164
SWIDTH 344 0
DWIDTH 12 0
BBX 13 11 0 0
BITMAP
000A2000002A20
0005CAEEB7D300
0000C4128E2000
000810000B2000
00350000075000
00820000084000
008300000B0000
00590000850000
00398656A00000
04500000920000
36000000370000
ENDCHAR
STARTCHAR yen
ENCODING 165
SWIDTH 309 0
DWIDTH 11 0
BBX 11 11 1 0
BITMAP
2AE300038C80
107C00230020
000E10000000
000C21000000
000CAFF20000
2AAE40000000
002E10000000
8BCFFF700000
009900000000
00D400000000
00C830000000
ENDCHAR
STARTCHAR brokenbar
ENCODING 166
SWIDTH 162 0
DWIDTH 6 0
BBX 2 32 2 -9
BITMAP
1A
1A
1A
1A
1A
1A
1A
1A
1A
1A
1A
19
00
00
00
00
00
00
00
00
1A
1A
1A
1A
1A
1A
1A
1A
1A
1A
1A
1A
ENDCHAR
STARTCHAR section
ENCODING 167
SWIDTH 395 0
DWIDTH 14 0
BBX 20 28 -2 -9
BITMAP
00000000000015798300
000000000028EA88CF60
00000000047A300009E0
000000003956000002F1
00000000B1B3000002B0
00000004A0E100000520
0000000880F200000000
0000000B70F400000000
0000000C70D600000000
0000000C80B900000000
0000000CA08D00000000
0000000AC04F10000000
00000007F11F50000000
00000004F40D80000000
00000001F70AC0000000
00000000BA06F1000000
000000008E03F3000000
000000004F21F5000000
000000001F50F6000000
000000000C80E6000000
013000000A90E5000000
091000000990F2000000
5A0000000883D0000000
B9000000095860000000
CC0000000B3B00000000
8F90000067A100000000
1BFD756AD71000000000
0049BA95100000000000
ENDCHAR
STARTCHAR dieresis
ENCODING 168
SWIDTH 174 0
DWIDTH 6 0
BBX 6 3 0 11
BITMAP
001001
1D70C7
3D22D2
ENDCHAR
STARTCHAR copyright
ENCODING 169
SWIDTH 331 0
DWIDTH 12 0
BBX 9 10 2 4
BITMAP
0000120000
0011114600
03149C9370
24360070A0
70910010A0
90C00000A0
A0B2021380
943B861A10
2C4115A200
0179850000
ENDCHAR
STARTCHAR ordfeminine
ENCODING 170
SWIDTH 226 0
DWIDTH 8 0
BBX 5 4 2 7
BITMAP
0548A0
730930
C02B00
A21C40
ENDCHAR
STARTCHAR guillemotleft
ENCODING 171
SWIDTH 289 0
DWIDTH 10 0
BBX 11 9 0 0
BITMAP
0000019109F0
00004A11FD00
0007803F6000
009506F20000
1B409F100000
1DC1AFF00000
01DC1AFF0000
002EA0DFA000
0004B00F9000
ENDCHAR
STARTCHAR logicalnot
ENCODING 172
SWIDTH 265 0
DWIDTH 10 0
BBX 9 6 0 4
BITMAP
0011122210
5FEEDDDF80
0000000E40
0000005D00
000000B800
0000008200
ENDCHAR
STARTCHAR registered
ENCODING 174
SWIDTH 331 0
DWIDTH 12 0
BBX 9 9 2 4
BITMAP
0025578500
0341320750
16287A30B0
71090540A0
90379400A0
B082A00290
A390592A20
4C2002B500
06DDCA3000
ENDCHAR
STARTCHAR degree
ENCODING 176
SWIDTH 104 0
DWIDTH 4 0
BBX 5 4 2 10
BITMAP
048A10
070530
191A10
0BE600
ENDCHAR
STARTCHAR plusminus
ENCODING 177
SWIDTH 301 0
DWIDTH 11 0
BBX 10 10 0 0
BITMAP
0000003500
000000A400
000001D000
0000068000
00CFFFFFF9
00001C0000
0000680000
0000A20000
0000100000
5BBBCBBA10
ENDCHAR
STARTCHAR twosuperior
ENCODING 178
SWIDTH 215 0
DWIDTH 8 0
BBX 6 6 1 5
BITMAP
0018C7
00602C
000057
000470
006401
28BCA3
ENDCHAR
STARTCHAR threesuperior
ENCODING 179
SWIDTH 190 0
DWIDTH 7 0
BBX 5 6 1 5
BITMAP
0058A0
0011B0
004B50
0012D0
2001A0
2A7610
ENDCHAR
STARTCHAR acute
ENCODING 180
SWIDTH 157 0
DWIDTH 6 0
BBX 4 3 1 11
BITMAP
01EA
0BB2
5400
ENDCHAR
STARTCHAR mu
ENCODING 181
SWIDTH 324 0
DWIDTH 12 0
BBX 13 15 -1 -6
BITMAP
000003B0002D10
00001D4000B800
00007B0004F100
0001E4000BA000
0007E0004C6000
000DA0023F3000
005D90142F2000
00B9A2603F4510
02E3E7000CC300
07A00000000000
0C600000000000
1F300000000000
4F100000000000
8D000000000000
42000000000000
ENDCHAR
STARTCHAR paragraph
ENCODING 182
SWIDTH 392 0
DWIDTH 14 0
BBX 20 20 -4 -9
BITMAP
0000000000000343ACA2
000000000006DF10E800
0000000002DFFC03F300
000000002EFFF807E000
00000000CFFFF40BA000
00000004FFFFF11F5000
00000008FFFFB05F1000
00000009FFFF709B0000
00000007FFFF30E60000
00000001EFFD04F20000
000000002BF909C00000
0000000000A40E600000
0000000001D05E100000
000000000590B9000000
013000000A24F2000000
0B3000002A0C70000000
3F000000929B00000000
4F2000055AB100000000
1EB1006BD60000000000
03BDBBA6100000000000
ENDCHAR
STARTCHAR periodcentered
ENCODING 183
SWIDTH 112 0
DWIDTH 4 0
BBX 3 3 1 4
BITMAP
3D10
CE00
C400
ENDCHAR
STARTCHAR cedilla
ENCODING 184
SWIDTH 115 0
DWIDTH 4 0
BBX 4 4 0 -4
BITMAP
0072
00C0
00A0
1610
ENDCHAR
STARTCHAR onesuperior
ENCODING 185
SWIDTH 174 0
DWIDTH 6 0
BBX 5 6 1 5
BITMAP
09CF20
006800
00C100
049000
0B3000
1B0000
ENDCHAR
STARTCHAR ordmasculine
ENCODING 186
SWIDTH 178 0
DWIDTH 6 0
BBX 5 4 1 7
BITMAP
015B50
080460
280410
182000
ENDCHAR
STARTCHAR guillemotright
ENCODING 187
SWIDTH 276 0
DWIDTH 10 0
BBX 11 9 -1 0
BITMAP
008D00C60000
003F809E2000
0007F51DC100
00008F52DC10
00002C306B10
000491087000
006701930000
08502A200000
8301A1000000
ENDCHAR
STARTCHAR onequarter
ENCODING 188
SWIDTH 435 0
DWIDTH 16 0
BBX 15 15 1 -2
BITMAP
0000000000005000
0000000000077000
00016B0000590000
0036C50004A00000
0003B0002B100000
000A4001B1000710
002D000A2001C500
008700940017B000
00E20760010D3000
04A05801516B1000
0003A007BEFA3000
001B100001D00000
00B2000005800000
0A40000000000000
1500000000000000
ENDCHAR
STARTCHAR onehalf
ENCODING 189
SWIDTH 434 0
DWIDTH 16 0
BBX 14 15 1 -2
BITMAP
00000000000050
00000000000770
00015B00005900
0036C50004A000
0002C0002B1000
00095001B11671
001D000A2185AB
0077009407003D
00D20760000078
04A05800000590
00039000017500
001A1000671030
00A200189CDB60
09400000000000
15000000000000
ENDCHAR
STARTCHAR threequarters
ENCODING 190
SWIDTH 476 0
DWIDTH 17 0
BBX 16 15 1 -2
BITMAP
0000000000000230
0000000000002B10
00179C100001B200
00500D20000A3000
0000580000940000
0028C90007600035
00000E20580008C0
00000D13A0017C30
2700642B10364A00
058611A20450A410
000009302999E700
0000850000086000
00058000000B1000
003A000000000000
0051000000000000
ENDCHAR
STARTCHAR questiondown
ENCODING 191
SWIDTH 285 0
DWIDTH 10 0
BBX 12 19 -2 -10
BITMAP
00000000005E
0000000000D7
000000000000
000000000000
00000002DB00
000000006E00
000000008900
000000049000
000001960000
000179200000
003B40000000
04C200000000
1E3000000000
7B0000000000
B90000000000
CB0000072000
9F3000380000
2EFA8A900000
029BA4000000
ENDCHAR
STARTCHAR Agrave
ENCODING 192
SWIDTH 996 0
DWIDTH 36 0
BBX 36 27 1 0
BITMAP
000000000000000000000000000000370000
0000000000000000000000000000006DC300
000000000000000000000000000000004A60
000000000000000000000000000000000000
000000000000000000016ADEFEDB86300000
0000000000000000004941001246ADFEA610
00000000000000000550000000000026BEE1
000000000000000025000000000000036F50
00000000000000006000000000000052D900
00000000000000006000000000001716E100
0000000000000003300000000002700D7000
0000000000000000000000000038005E1000
000000000000000000000000038000B90000
000000000000000000000000480001F30000
000000000000000000000004900005E00000
00000000000000000000004900111AA00000
000000000000000007EFFFFFEEEDDF700000
000000000000000000001B3000000F400000
01800000000000000000A30000002F200000
0820000000000000000A300000005F000000
0B0000000000000001A3000000006F000000
2D000000000000002A30000000007E000000
2F20000000000005B100000000007F000000
1FA00000000002A80000000000007F100030
0AFB20000004AC300000000000005F600530
02DFFCA89BEC60000000000000001EFAB500
0029DFEDB830000000000000000005ED4000
ENDCHAR
STARTCHAR Aacute
ENCODING 193
SWIDTH 996 0
DWIDTH 36 0
BBX 37 28 1 0
BITMAP
00000000000000000000000000000000003300
0000000000000000000000000000000005FC10
000000000000000000000000000000006E7000
00000000000000000000000000000006810000
00000000000000000000000000000000000000
000000000000000000016ADEFEDB8630000000
0000000000000000004941001246ADFEA61000
00000000000000000550000000000026BEE100
000000000000000025000000000000036F5000
00000000000000006000000000000052D90000
00000000000000006000000000001716E10000
0000000000000003300000000002700D700000
0000000000000000000000000038005E100000
000000000000000000000000038000B9000000
000000000000000000000000480001F3000000
000000000000000000000004900005E0000000
00000000000000000000004900111AA0000000
000000000000000007EFFFFFEEEDDF70000000
000000000000000000001B3000000F40000000
01800000000000000000A30000002F20000000
0820000000000000000A300000005F00000000
0B0000000000000001A3000000006F00000000
2D000000000000002A30000000007E00000000
2F20000000000005B100000000007F00000000
1FA00000000002A80000000000007F10003000
0AFB20000004AC300000000000005F60053000
02DFFCA89BEC60000000000000001EFAB50000
0029DFEDB830000000000000000005ED400000
ENDCHAR
STARTCHAR Acircumflex
ENCODING 194
SWIDTH 996 0
DWIDTH 36 0
BBX 38 28 1 0
BITMAP
00000000000000000000000000000000038000
000000000000000000000000000000005EF900
00000000000000000000000000000008825BB1
00000000000000000000000000000000000000
00000000000000000000000000000000000000
000000000000000000016ADEFEDB8630000000
0000000000000000004941001246ADFEA61000
00000000000000000550000000000026BEE100
000000000000000025000000000000036F5000
00000000000000006000000000000052D90000
00000000000000006000000000001716E10000
0000000000000003300000000002700D700000
0000000000000000000000000038005E100000
000000000000000000000000038000B9000000
000000000000000000000000480001F3000000
000000000000000000000004900005E0000000
00000000000000000000004900111AA0000000
000000000000000007EFFFFFEEEDDF70000000
000000000000000000001B3000000F40000000
01800000000000000000A30000002F20000000
0820000000000000000A300000005F00000000
0B0000000000000001A3000000006F00000000
2D000000000000002A30000000007E00000000
2F20000000000005B100000000007F00000000
1FA00000000002A80000000000007F10003000
0AFB20000004AC300000000000005F60053000
02DFFCA89BEC60000000000000001EFAB50000
0029DFEDB830000000000000000005ED400000
ENDCHAR
STARTCHAR Atilde
ENCODING 195
SWIDTH 996 0
DWIDTH 36 0
BBX 38 27 1 0
BITMAP
00000000000000000000000000000000000001
00000000000000000000000000000007DB3006
0000000000000000000000000000005306CB82
00000000000000000000000000000000000000
000000000000000000016ADEFEDB8630000000
0000000000000000004941001246ADFEA61000
00000000000000000550000000000026BEE100
000000000000000025000000000000036F5000
00000000000000006000000000000052D90000
00000000000000006000000000001716E10000
0000000000000003300000000002700D700000
0000000000000000000000000038005E100000
000000000000000000000000038000B9000000
000000000000000000000000480001F3000000
000000000000000000000004900005E0000000
00000000000000000000004900111AA0000000
000000000000000007EFFFFFEEEDDF70000000
000000000000000000001B3000000F40000000
01800000000000000000A30000002F20000000
0820000000000000000A300000005F00000000
0B0000000000000001A3000000006F00000000
2D000000000000002A30000000007E00000000
2F20000000000005B100000000007F00000000
1FA00000000002A80000000000007F10003000
0AFB20000004AC300000000000005F60053000
02DFFCA89BEC60000000000000001EFAB50000
0029DFEDB830000000000000000005ED400000
ENDCHAR
STARTCHAR Adieresis
ENCODING 196
SWIDTH 996 0
DWIDTH 36 0
BBX 37 27 1 0
BITMAP
000000000000000000000000000000004C0780
00000000000000000000000000000000980C40
00000000000000000000000000000000000000
00000000000000000000000000000000000000
000000000000000000016ADEFEDB8630000000
0000000000000000004941001246ADFEA61000
00000000000000000550000000000026BEE100
000000000000000025000000000000036F5000
00000000000000006000000000000052D90000
00000000000000006000000000001716E10000
0000000000000003300000000002700D700000
0000000000000000000000000038005E100000
000000000000000000000000038000B9000000
000000000000000000000000480001F3000000
000000000000000000000004900005E0000000
00000000000000000000004900111AA0000000
000000000000000007EFFFFFEEEDDF70000000
000000000000000000001B3000000F40000000
01800000000000000000A30000002F20000000
0820000000000000000A300000005F00000000
0B0000000000000001A3000000006F00000000
2D000000000000002A30000000007E00000000
2F20000000000005B100000000007F00000000
1FA00000000002A80000000000007F10003000
0AFB20000004AC300000000000005F60053000
02DFFCA89BEC60000000000000001EFAB50000
0029DFEDB830000000000000000005ED400000
ENDCHAR
STARTCHAR Aring
ENCODING 197
SWIDTH 996 0
DWIDTH 36 0
BBX 37 28 1 0
BITMAP
00000000000000000000000000000000038000
00000000000000000000000000000000040620
000000000000000000000000000000002A1A10
000000000000000000000000000000000AC400
00000000000000000000000000000000000000
000000000000000000016ADEFEDB8630000000
0000000000000000004941001246ADFEA61000
00000000000000000550000000000026BEE100
000000000000000025000000000000036F5000
00000000000000006000000000000052D90000
00000000000000006000000000001716E10000
0000000000000003300000000002700D700000
0000000000000000000000000038005E100000
000000000000000000000000038000B9000000
000000000000000000000000480001F3000000
000000000000000000000004900005E0000000
00000000000000000000004900111AA0000000
000000000000000007EFFFFFEEEDDF70000000
000000000000000000001B3000000F40000000
01800000000000000000A30000002F20000000
0820000000000000000A300000005F00000000
0B0000000000000001A3000000006F00000000
2D000000000000002A30000000007E00000000
2F20000000000005B100000000007F00000000
1FA00000000002A80000000000007F10003000
0AFB20000004AC300000000000005F60053000
02DFFCA89BEC60000000000000001EFAB50000
0029DFEDB830000000000000000005ED400000
ENDCHAR
STARTCHAR AE
ENCODING 198
SWIDTH 1271 0
DWIDTH 46 0
BBX 47 23 1 0
BITMAP
000000000000000000016ADEFEDB85200000002789BC9400
0000000000000000004941001246ADFDA51007600001AF60
00000000000000000550000000000026BDE1780000000A70
000000000000000025000000000000045F81E20000000620
00000000000000006000000000000052AD05F10000000300
00000000000000006000000000001712F505F50000000000
00000000000000024000000000028108D001ED2000000000
0000000000000000000000000038000D70006FE710000000
0000000000000000000000000390003F20015CFE30000000
0000000000000000000000004900008D0277310000000000
000000000000000000000004900000B95700000000000000
000000000000000000000049000000FA6000000000000000
000000000000000002CFFFFFFFFFFFFC0000000000000000
001000000000000000001B30000004F50000000000000000
01800000000000000001B300000006F10000000000000000
0820000000000000001B3000000007E00000000000000000
0B0000000000000001B30000000008E00000000000021000
2D000000000000002B300000000008F00000000000071000
2F20000000000005C2000000000006F30000000000090000
1FB00000000002B910000000000002F90000000000760000
0AFB20000004AD40000000000000009F4000000005E10000
02DFFCA99BED6000000000000000001BE6000003AD400000
0018DFEDB830000000000000000000006BDA999730000000
ENDCHAR
STARTCHAR Ccedilla
ENCODING 199
SWIDTH 557 0
DWIDTH 20 0
BBX 21 27 2 -4
BITMAP
0000000001689ABCDC9400
000000017730000015CF70
0000006710000000000B80
0000084000000000000820
0000A40000000000000600
0008700000000000000000
004D000000000000000000
00C6000000000000000000
05F1000000000000000000
0BB0000000000000000000
1F80000000000000000000
4F60000000000000000000
6F50000000000000000000
7F50000000000000000000
7F60000000000000000000
6F90000000000000000000
3FD0000000000000060000
0DF4000000000000540000
05FC000000000000B00000
00AF800000000007900000
001AF9100000006F200000
00006DE831015BE7000000
00000048ACA86300000000
000000000A000000000000
000000000C000000000000
0000000009000000000000
0000000161000000000000
ENDCHAR
STARTCHAR Egrave
ENCODING 200
SWIDTH 463 0
DWIDTH 17 0
BBX 18 27 1 0
BITMAP
000000000003710000
000000000006DD3000
00000000000004A700
000000000000000000
0000000004789BC930
000000019400002BF5
0000001C30000000C6
0000007B0000000081
000000C90000000040
000000CC0000000000
0000006F7000000000
00000008FB40000000
00000027DFD2000000
000038631000000000
000760000000000000
009500000000000000
06A000000000000000
1E3000000000000000
7E0000000000000000
BD0000000000000000
DC0000000000002000
ED0000000000008000
CF1000000000019000
8F7000000000094000
1DE2000000007D0000
03DE5000003BC30000
0017CCA99973000000
ENDCHAR
STARTCHAR Eacute
ENCODING 201
SWIDTH 463 0
DWIDTH 17 0
BBX 18 27 1 0
BITMAP
000000000000019800
0000000000002CC400
000000000005930000
000000000000000000
0000000004789BC930
000000019400002BF5
0000001C30000000C6
0000007B0000000081
000000C90000000040
000000CC0000000000
0000006F7000000000
00000008FB40000000
00000027DFD2000000
000038631000000000
000760000000000000
009500000000000000
06A000000000000000
1E3000000000000000
7E0000000000000000
BD0000000000000000
DC0000000000002000
ED0000000000008000
CF1000000000019000
8F7000000000094000
1DE2000000007D0000
03DE5000003BC30000
0017CCA99973000000
ENDCHAR
STARTCHAR Ecircumflex
ENCODING 202
SWIDTH 463 0
DWIDTH 17 0
BBX 18 28 1 0
BITMAP
000000000000380000
000000000005EF9000
00000000007825BC10
000000000000000000
000000000000000000
0000000004789BC930
000000019400002BF5
0000001C30000000C6
0000007B0000000081
000000C90000000040
000000CC0000000000
0000006F7000000000
00000008FB40000000
00000027DFD2000000
000038631000000000
000760000000000000
009500000000000000
06A000000000000000
1E3000000000000000
7E0000000000000000
BD0000000000000000
DC0000000000002000
ED0000000000008000
CF1000000000019000
8F7000000000094000
1DE2000000007D0000
03DE5000003BC30000
0017CCA99973000000
ENDCHAR
STARTCHAR Edieresis
ENCODING 203
SWIDTH 463 0
DWIDTH 17 0
BBX 18 27 1 0
BITMAP
000000000001C24B00
000000000005C09800
000000000000000000
000000000000000000
0000000004789BC930
000000019400002BF5
0000001C30000000C6
0000007B0000000081
000000C90000000040
000000CC0000000000
0000006F7000000000
00000008FB40000000
00000027DFD2000000
000038631000000000
000760000000000000
009500000000000000
06A000000000000000
1E3000000000000000
7E0000000000000000
BD0000000000000000
DC0000000000002000
ED0000000000008000
CF1000000000019000
8F7000000000094000
1DE2000000007D0000
03DE5000003BC30000
0017CCA99973000000
ENDCHAR
STARTCHAR Igrave
ENCODING 204
SWIDTH 514 0
DWIDTH 19 0
BBX 26 27 0 0
BITMAP
00000000000000000172000000
0000000000000000027A830000
00000000000000000000030000
00000000000000000000000000
0000000000000000000037BDD1
0000000000000000003BA7B810
00000000000000001A820A4000
00000000000000039200780000
00000000000000280002E10000
00000000000001800009A00000
0000000000000700000E500000
0000000000004300004F100000
0000000000007000008C000000
000000000002500000D7000000
000000000006100002F3000000
000000000007000007C0000000
00000000000700000C70000000
00000000000610002E10000000
00000000000260009800000000
0003000000007301D100000000
008400000000068B9500000000
0A400000000000390000000000
5D000000000001910000000000
9D000000000018100000000000
7F500000000470000000000000
1DF83101379400000000000000
017CEFEC830000000000000000
ENDCHAR
STARTCHAR Iacute
ENCODING 205
SWIDTH 514 0
DWIDTH 19 0
BBX 26 28 0 0
BITMAP
00000000000000000000033000
000000000000000000006FB100
0000000000000000001AA30000
00000000000000000031000000
00000000000000000000000000
0000000000000000000037BDD1
0000000000000000003BA7B810
00000000000000001A820A4000
00000000000000039200780000
00000000000000280002E10000
00000000000001800009A00000
0000000000000700000E500000
0000000000004300004F100000
0000000000007000008C000000
000000000002500000D7000000
000000000006100002F3000000
000000000007000007C0000000
00000000000700000C70000000
00000000000610002E10000000
00000000000260009800000000
0003000000007301D100000000
008400000000068B9500000000
0A400000000000390000000000
5D000000000001910000000000
9D000000000018100000000000
7F500000000470000000000000
1DF83101379400000000000000
017CEFEC830000000000000000
ENDCHAR
STARTCHAR Icircumflex
ENCODING 206
SWIDTH 514 0
DWIDTH 19 0
BBX 26 28 0 0
BITMAP
00000000000000000000290000
00000000000000000003DFB100
0000000000000000006934AD20
00000000000000000000000000
00000000000000000000000000
0000000000000000000037BDD1
0000000000000000003BA7B810
00000000000000001A820A4000
00000000000000039200780000
00000000000000280002E10000
00000000000001800009A00000
0000000000000700000E500000
0000000000004300004F100000
0000000000007000008C000000
000000000002500000D7000000
000000000006100002F3000000
000000000007000007C0000000
00000000000700000C70000000
00000000000610002E10000000
00000000000260009800000000
0003000000007301D100000000
008400000000068B9500000000
0A400000000000390000000000
5D000000000001910000000000
9D000000000018100000000000
7F500000000470000000000000
1DF83101379400000000000000
017CEFEC830000000000000000
ENDCHAR
STARTCHAR Idieresis
ENCODING 207
SWIDTH 514 0
DWIDTH 19 0
BBX 26 27 0 0
BITMAP
00000000000000000005B08700
0000000000000000000A60D300
00000000000000000000000000
00000000000000000000000000
0000000000000000000037BDD1
0000000000000000003BA7B810
00000000000000001A820A4000
00000000000000039200780000
00000000000000280002E10000
00000000000001800009A00000
0000000000000700000E500000
0000000000004300004F100000
0000000000007000008C000000
000000000002500000D7000000
000000000006100002F3000000
000000000007000007C0000000
00000000000700000C70000000
00000000000610002E10000000
00000000000260009800000000
0003000000007301D100000000
008400000000068B9500000000
0A400000000000390000000000
5D000000000001910000000000
9D000000000018100000000000
7F500000000470000000000000
1DF83101379400000000000000
017CEFEC830000000000000000
ENDCHAR
STARTCHAR Eth
ENCODING 208
SWIDTH 800 0
DWIDTH 29 0
BBX 28 24 1 0
BITMAP
0000000000000000000000450000
0000000016ADEFEC840049300000
0000000595100148CFDB70000000
000000650000000004EEB2000000
00000450000000000A61BE400000
00000700000000006B0009F40000
0000240000000001E400009E3000
0000400000000007C000000CD100
000000000000000E60000002E900
000000000000004F100000008F20
00000000000000AB000000001E90
00000000000001E6000000000AE1
00000000000005E10100000005F4
000000000CFFFFFEFFF6000002F7
0000000000000D821000000000E9
0000000000005F100000000000D9
000000000000B9000000000000C7
000000000003F2000000000000D4
00000000000B80000000000001D0
00000000005D1000000000000570
017BCBA843E30000000000000800
3821247AEF700000000000004100
C400002765AC8400000000120000
9EA98750000047AA997643100000
ENDCHAR
STARTCHAR Ntilde
ENCODING 209
SWIDTH 796 0
DWIDTH 29 0
BBX 45 27 -6 0
BITMAP
0000000000000000000000000000000000020000000000
000000000000000000000000000019E910150000000000
00000000000000000000000000007118DB700000000000
0000000000000000000000000000000000000000000000
00000000000017CEED93001000000000000000003AEC30
000000000003B64358DFA2900000000000000005EA9DB0
00000000003800000005DF90000000000000005D3001B0
000000000050000000001BF500000000000002C1000040
00000000000000000000089F4000000000000B20000000
000000000000000000000B17E200000000007500000000
000000000000000000000B00AD1000000001A000000000
0000000000000000000028001D90000000073000000000
00000000000000000000650004F3000000080000000000
00000000000000000000A00000AC000000630000000000
000000000000000000019000002F500000800000000000
0000000000000000000540000009C00002500000000000
0012000000000000000900000002F40007100000000000
00A1000000000000003600000000AB0007000000000000
06600000000000000090000000004F3026000000000000
0D100000000000000450000000000D9062000000000000
1E0000000000000019000000000007E070000000000000
2F1000000000000091000000000002F470000000000000
1F7000000000000940000000000000C970000000000000
0BE30000000002B4000000000000007F50000000000000
02EE600000017D30000000000000003F40000000000000
003EFEA989CF9100000000000000000D20000000000000
00018CEFEB720000000000000000000810000000000000
ENDCHAR
STARTCHAR Ograve
ENCODING 210
SWIDTH 608 0
DWIDTH 22 0
BBX 22 27 2 0
BITMAP
00000000000AD300000000
000000000003BE50000000
0000000000000397000000
0000000000000000000000
00000000016ADEED930000
0000000079521127DF8000
000000371000000009F800
000004500000000000AF40
0000540000000000001EB0
00027000000000000009F1
000A0000000000000004F5
00760000000000000001F7
00D00000000000000000F7
06A00000000000000000E7
0B600000000000000000F5
1F400000000000000002F3
3F300000000000000004E0
5F20000000000000000890
6F30000000000000000C20
5F40000000000000004900
3F8000000000000000B200
0FD0000000000000065000
09F5000000000000370000
02EE200000000003600000
006FD30000000065000000
0005EFA520138810000000
000017CEFEB72000000000
ENDCHAR
STARTCHAR Oacute
ENCODING 211
SWIDTH 608 0
DWIDTH 22 0
BBX 22 27 2 0
BITMAP
000000000000007A200000
00000000000019E7000000
0000000000029500000000
0000000000000000000000
00000000016ADEED930000
0000000079521127DF8000
000000371000000009F800
000004500000000000AF40
0000540000000000001EB0
00027000000000000009F1
000A0000000000000004F5
00760000000000000001F7
00D00000000000000000F7
06A00000000000000000E7
0B600000000000000000F5
1F400000000000000002F3
3F300000000000000004E0
5F20000000000000000890
6F30000000000000000C20
5F40000000000000004900
3F8000000000000000B200
0FD0000000000000065000
09F5000000000000370000
02EE200000000003600000
006FD30000000065000000
0005EFA520138810000000
000017CEFEB72000000000
ENDCHAR
STARTCHAR Ocircumflex
ENCODING 212
SWIDTH 608 0
DWIDTH 22 0
BBX 22 28 2 0
BITMAP
0000000000000290000000
0000000000003ACB100000
0000000000065008C20000
0000000000000000000000
0000000000000000000000
00000000016ADEED930000
0000000079521127DF8000
000000371000000009F800
000004500000000000AF40
0000540000000000001EB0
00027000000000000009F1
000A0000000000000004F5
00760000000000000001F7
00D00000000000000000F7
06A00000000000000000E7
0B600000000000000000F5
1F400000000000000002F3
3F300000000000000004E0
5F20000000000000000890
6F30000000000000000C20
5F40000000000000004900
3F8000000000000000B200
0FD0000000000000065000
09F5000000000000370000
02EE200000000003600000
006FD30000000065000000
0005EFA520138810000000
000017CEFEB72000000000
ENDCHAR
STARTCHAR Otilde
ENCODING 213
SWIDTH 608 0
DWIDTH 22 0
BBX 22 27 2 0
BITMAP
0000000000000000011000
000000000006DB30060000
00000000004305CC920000
0000000000000000000000
00000000016ADEED930000
0000000079521127DF8000
000000371000000009F800
000004500000000000AF40
0000540000000000001EB0
00027000000000000009F1
000A0000000000000004F5
00760000000000000001F7
00D00000000000000000F7
06A00000000000000000E7
0B600000000000000000F5
1F400000000000000002F3
3F300000000000000004E0
5F20000000000000000890
6F30000000000000000C20
5F40000000000000004900
3F8000000000000000B200
0FD0000000000000065000
09F5000000000000370000
02EE200000000003600000
006FD30000000065000000
0005EFA520138810000000
000017CEFEB72000000000
ENDCHAR
STARTCHAR Odieresis
ENCODING 214
SWIDTH 608 0
DWIDTH 22 0
BBX 22 26 2 0
BITMAP
0000000000005B08700000
000000000000A60D300000
0000000000000000000000
00000000016ADEED930000
0000000079521127DF8000
000000371000000009F800
000004500000000000AF40
0000540000000000001EB0
00027000000000000009F1
000A0000000000000004F5
00760000000000000001F7
00D00000000000000000F7
06A00000000000000000E7
0B600000000000000000F5
1F400000000000000002F3
3F300000000000000004E0
5F20000000000000000890
6F30000000000000000C20
5F40000000000000004900
3F8000000000000000B200
0FD0000000000000065000
09F5000000000000370000
02EE200000000003600000
006FD30000000065000000
0005EFA520138810000000
000017CEFEB72000000000
ENDCHAR
STARTCHAR multiply
ENCODING 215
SWIDTH 301 0
DWIDTH 11 0
BBX 8 10 2 0
BITMAP
00000001
01B0008A
00A408B0
003C8B00
000CB100
00269000
01909100
1B104800
B5000900
20000000
ENDCHAR
STARTCHAR Oslash
ENCODING 216
SWIDTH 605 0
DWIDTH 22 0
BBX 22 25 2 -1
BITMAP
0000000000000000003200
00000000016ADEEC73A000
0000000179421138EF6000
0000004710000000BCF600
000006400000000851CE20
0000630000000049003F90
00046000000001B0000BE0
001A000000000A200007F3
00850000000065000003F5
01C00000000390000002F6
07900000001A10000001F5
0C500000009300000002F4
1F300000056000000003F1
4F2000002A0000000005D0
6F100000A1000000000980
7F20000740000000000D20
6F30003800000000005800
5F7001A00000000000B100
1FC0092000000000074000
0BF5660000000000460000
03FEA00000000004600000
007FD30000000174000000
0078FFA520138710000000
047028CEFEB72000000000
0600000000000000000000
ENDCHAR
STARTCHAR Ugrave
ENCODING 217
SWIDTH 717 0
DWIDTH 26 0
BBX 29 27 1 0
BITMAP
000000000000000000310000000000
000000000000000003DD4000000000
00000000000000000005B910000000
000000000000000000000110000000
0000027BEFEDA62000000000009D10
00007B642357BFE10000000004F500
0009300000001920000000000BB000
008100000001A200000000002F3000
05300000000A300000000000AA0000
080000000085000000000002F30000
3400000004A0000000000009C00000
710000001D1000000000002F600000
70000000970000000000009E100000
70000002E1000000000002F9000000
6000000990000000000009F4000000
5000001E3000000000003CE0000000
0000006E0000000000008C90000000
000000AA0000000000046F40000000
000000E70000000000177F10000000
000002F4000000000071BB00000000
000005F3000000000330E800000000
000006F2000000001501F500000000
000006F3000000006003F300000000
000005F5000000060004F200130000
000003FA000002600005F500810000
000000BF820376000002FE9B200000
0000001AEEC7100000008EA1000000
ENDCHAR
STARTCHAR Uacute
ENCODING 218
SWIDTH 717 0
DWIDTH 26 0
BBX 29 27 1 0
BITMAP
000000000000000000000062000000
000000000000000000001BE6000000
00000000000000000004B610000000
000000000000000000020000000000
0000027BEFEDA62000000000009D10
00007B642357BFE10000000004F500
0009300000001920000000000BB000
008100000001A200000000002F3000
05300000000A300000000000AA0000
080000000085000000000002F30000
3400000004A0000000000009C00000
710000001D1000000000002F600000
70000000970000000000009E100000
70000002E1000000000002F9000000
6000000990000000000009F4000000
5000001E3000000000003CE0000000
0000006E0000000000008C90000000
000000AA0000000000046F40000000
000000E70000000000177F10000000
000002F4000000000071BB00000000
000005F3000000000330E800000000
000006F2000000001501F500000000
000006F3000000006003F300000000
000005F5000000060004F200130000
000003FA000002600005F500810000
000000BF820376000002FE9B200000
0000001AEEC7100000008EA1000000
ENDCHAR
STARTCHAR Ucircumflex
ENCODING 219
SWIDTH 718 0
DWIDTH 26 0
BBX 29 27 1 0
BITMAP
00000000000000000000B800000000
0000000000000000001A7E70000000
0000000000000000038102C9000000
000000000000000000000000000000
0000027BEFEDA62000000000009D10
00007B642357BFE10000000004F500
0009300000001920000000000BB000
008100000001A200000000002F3000
05300000000A300000000000AA0000
080000000085000000000002F30000
3400000004A0000000000009C00000
710000001D1000000000002F600000
70000000970000000000009E100000
70000002E1000000000002F9000000
6000000990000000000009F4000000
5000001E3000000000003CE0000000
0000006E0000000000007C90000000
000000AA0000000000045F40000000
000000E70000000000166F10000000
000002F4000000000061AB00000000
000005F3000000000330E800000000
000006F2000000001501F500000000
000006F3000000006003F300000000
000005F5000000060004F200130000
000003FA000002600005F500810000
000000BF820376000002FE9B200000
0000001AEEC7100000008EA1000000
ENDCHAR
STARTCHAR Udieresis
ENCODING 220
SWIDTH 718 0
DWIDTH 26 0
BBX 29 27 1 0
BITMAP
0000000000000000002C15A0000000
0000000000000000006A0A60000000
000000000000000000000000000000
000000000000000000000000000000
0000027BEFEDA62000000000009D10
00007B642357BFE10000000004F500
0009300000001920000000000BB000
008100000001A200000000002F3000
05300000000A300000000000AA0000
080000000085000000000002F30000
3400000004A0000000000009C00000
710000001D1000000000002F600000
70000000970000000000009E100000
70000002E1000000000002F9000000
6000000990000000000009F4000000
5000001E3000000000003CE0000000
0000006E0000000000008C90000000
000000AA0000000000046F40000000
000000E70000000000177F10000000
000002F4000000000071BB00000000
000005F3000000000330E800000000
000006F2000000001501F500000000
000006F3000000006003F300000000
000005F5000000060004F200130000
000003FA000002600005F500810000
000000BF820376000002FE9B200000
0000001AEEC7100000008EA1000000
ENDCHAR
STARTCHAR Yacute
ENCODING 221
SWIDTH 662 0
DWIDTH 24 0
BBX 32 32 0 -5
BITMAP
00000000000000000000000011000000
000000000000000000000002DE200000
00000000000000000000003DA2000000
00000000000000000000039300000000
00000000000006DE70000000000002C4
000000000001952CD000000000000AD0
0000000000081009D000000000002F60
000000000002000AB00000000000AD00
000000000000000D800000000003F700
000000000000002F30000000000CE100
000000000000007E00000000005F7000
00000000000000C90000000001DE0000
00000000000002F40000000008F60000
00000000000006E0000000003FD00000
0000000000000B9000000000BF500000
0000000000001F5000000006DC000000
0000000000004F1000000048F3000000
0000000000007E000000034EA0000000
0000027700009C000000347E20000000
000296100000AD00000441E700000000
0058000000007F61148209C000000000
04A00000000019EEB5003E2000000000
0D200000000000000000D70000000000
5D000000000000000008A00000000000
9A00000000000000004D100000000000
BA0000000000000002D2000000000000
BC000000000000001C30000000000000
8F10000000000001B400000000000000
4F8000000000002B3000000000000000
0BF60000000007910000000000000000
01CFB5201259A4000000000000000000
0006BEFEDB7200000000000000000000
ENDCHAR
STARTCHAR Thorn
ENCODING 222
SWIDTH 745 0
DWIDTH 27 0
BBX 28 25 1 0
BITMAP
0000000000000000000000001500
0000000000000000000000067100
0000000000000000000000A50000
0000000000000000000008800000
000000000000000000004D000000
00000000000000000000C6000000
000000000000000028BDFEC71000
0000000000000018620BA26DE400
0000000000000191002F5001CE30
0000000000000710007F10001EB0
000000000000260000BB000009F1
000000000000210001F7000006F3
000000000000000005F2000005F3
00000000000000000AC0000007F1
00000000000000000E6000000BB0
00340000000000005E1000003F40
0250000000000000B8000001D700
0800000000000028E100005C5000
0A0000000000000AA88788600000
2A0000000000003C000000000000
2D000000000000B2000000000000
0E50000000000940000000000000
07E400000002A300000000000000
009FA53235991000000000000000
0005BEFEB7200000000000000000
ENDCHAR
STARTCHAR germandbls
ENCODING 223
SWIDTH 304 0
DWIDTH 11 0
BBX 32 35 -12 -9
BITMAP
000000000000000000000000027AB810
00000000000000000000000143003DC0
000000000000000000000022000006F2
000000000000000000000210000004F2
000000000000000000002300000006F1
00000000000000000000600000000BA0
00000000000000000006100000003F30
0000000000000000002700000002D700
000000000000000000910000002D8000
00000000000000000290000005D50000
0000000000000000093000009C200000
00000000000000001C00003C90000000
0000000000000000780006D400000000
0000000000000000C3009C2000000000
0000000000000002D008C10000000000
0000000000000007903F200000000000
000000000000000C509A000000000000
000000000000001F20B8000000000000
000000000000005D0099000000000000
0000000000000099003E100000000000
00000000000000E50009900000000000
00000000000003F10001E30000000000
00000000000007A000009A0000000000
0000000000000C5033007B0000000000
0000000000002E10D513D70000000000
00000000000079007DFD700000000000
000000000000D2000000000000000000
000000000004A0000000000000000000
00000000000B30000000000000000000
00000000003900000000000000000000
0000000000A100000000000000000000
00000000073000000000000000000000
50000000640000000000000000000000
79200158300000000000000000000000
1AEEDA50000000000000000000000000
ENDCHAR
STARTCHAR agrave
ENCODING 224
SWIDTH 294 0
DWIDTH 11 0
BBX 10 15 1 0
BITMAP
0000044000
00001DF300
000001BC00
0000000670
0000000000
0000000000
0004AEEBB3
007B304E90
06B0001D10
2E30008800
8B0002E300
C90008E000
D80047B010
BC1618B260
4E9105E600
ENDCHAR
STARTCHAR aacute
ENCODING 225
SWIDTH 294 0
DWIDTH 11 0
BBX 10 14 1 0
BITMAP
00000007E4
0000003E70
0000027100
0000000000
0000000000
0004AEEBB3
007B304E90
06B0001D10
2E30008800
8B0002E300
C90008E000
D80047B010
BC1618B260
4E9105E600
ENDCHAR
STARTCHAR acircumflex
ENCODING 226
SWIDTH 294 0
DWIDTH 11 0
BBX 10 15 1 0
BITMAP
0000001000
000002DA00
0000583BC3
0000200021
0000000000
0000000000
0004AEEBB3
007B304E90
06B0001D10
2E30008800
8B0002E300
C90008E000
D80047B010
BC1618B260
4E9105E600
ENDCHAR
STARTCHAR atilde
ENCODING 227
SWIDTH 294 0
DWIDTH 11 0
BBX 10 15 1 0
BITMAP
0000000001
00007E6137
000254CE90
0006000000
0000000000
0000000000
0004AEEBB3
007B304E90
06B0001D10
2E30008800
8B0002E300
C90008E000
D80047B010
BC1618B260
4E9105E600
ENDCHAR
STARTCHAR adieresis
ENCODING 228
SWIDTH 284 0
DWIDTH 10 0
BBX 10 14 1 0
BITMAP
0000010010
00005F14F1
0000980890
0000000000
0000000000
0004AEEBB3
007B304E90
06B0001D10
2E30008800
8B0002E300
C90008E000
D80047B010
BC1618B260
4E9105E600
ENDCHAR
STARTCHAR aring
ENCODING 229
SWIDTH 294 0
DWIDTH 11 0
BBX 10 14 1 0
BITMAP
0000037A00
0000080800
0000089500
0000000000
0000000000
0004AEEBB3
007B304E90
06B0001D10
2E30008800
8B0002E300
C90008E000
D80047B010
BC1618B260
4E9105E600
ENDCHAR
STARTCHAR ae
ENCODING 230
SWIDTH 363 0
DWIDTH 13 0
BBX 12 10 1 0
BITMAP
000000009000
000446CA89E8
0071005F307F
0730009900A8
2B0001E97830
880007E50000
C60037F10000
D60284F20001
CC6902F90281
5E90007ED810
ENDCHAR
STARTCHAR ccedilla
ENCODING 231
SWIDTH 203 0
DWIDTH 7 0
BBX 7 14 1 -5
BITMAP
00131C40
01100920
07000000
29000000
87000000
C6000000
D7003600
CC468000
5EE60000
02700000
06700000
05700000
08100000
52000000
ENDCHAR
STARTCHAR egrave
ENCODING 232
SWIDTH 206 0
DWIDTH 7 0
BBX 8 15 1 0
BITMAP
00026000
0009F700
00007F30
00000391
00000000
00000000
0017CC10
01602F50
08106C10
2C786000
8A100000
C7000000
D8000100
CD117400
3DEB3000
ENDCHAR
STARTCHAR eacute
ENCODING 233
SWIDTH 206 0
DWIDTH 7 0
BBX 8 14 1 0
BITMAP
000001E9
00000BB2
00006400
00000000
00000000
0017CC10
01602F50
08106C10
2C786000
8A100000
C7000000
D8000100
CD117400
3DEB3000
ENDCHAR
STARTCHAR ecircumflex
ENCODING 234
SWIDTH 206 0
DWIDTH 7 0
BBX 8 15 1 0
BITMAP
00001000
0002DA00
00583BC3
00200021
00000000
00000000
0017CC10
01602F50
08106C10
2C786000
8A100000
C7000000
D8000100
CD117400
3DEB3000
ENDCHAR
STARTCHAR edieresis
ENCODING 235
SWIDTH 206 0
DWIDTH 7 0
BBX 8 14 1 0
BITMAP
00001001
000AA0AA
000E40D4
00000000
00000000
0017CC10
01602F50
08106C10
2C786000
8A100000
C7000000
D8000100
CD117400
3DEB3000
ENDCHAR
STARTCHAR igrave
ENCODING 236
SWIDTH 149 0
DWIDTH 5 0
BBX 6 15 1 0
BITMAP
005400
02EE20
002CB0
000076
000000
000000
004B00
06B600
23D000
098000
1E2000
5D0000
990200
BA4500
9E6000
ENDCHAR
STARTCHAR iacute
ENCODING 237
SWIDTH 149 0
DWIDTH 5 0
BBX 7 14 1 0
BITMAP
00000DB0
00009C30
00055000
00000000
00000000
004B0000
06B60000
23D00000
09800000
1E200000
5D000000
99020000
BA450000
9E600000
ENDCHAR
STARTCHAR icircumflex
ENCODING 238
SWIDTH 149 0
DWIDTH 5 0
BBX 7 15 1 0
BITMAP
00011000
001CB100
04839D40
02000210
00000000
00000000
004B0000
06B60000
23D00000
09800000
1E200000
5D000000
99020000
BA450000
9E600000
ENDCHAR
STARTCHAR idieresis
ENCODING 239
SWIDTH 149 0
DWIDTH 5 0
BBX 7 14 1 0
BITMAP
00010010
007E06E0
00B70A70
00000000
00000000
004B0000
06B60000
23D00000
09800000
1E200000
5D000000
99020000
BA450000
9E600000
ENDCHAR
STARTCHAR eth
ENCODING 240
SWIDTH 234 0
DWIDTH 8 0
BBX 7 24 1 0
BITMAP
05100000
1A000000
69000000
7C000000
3F500000
09E10010
01CB3710
002F8000
0298D000
3910D600
20005C00
00000E20
00000970
000005A0
000002D0
000225E0
005000F0
082000D0
2B0001C0
79000470
A7000A10
C9004700
AE569000
3DE70000
ENDCHAR
STARTCHAR ntilde
ENCODING 241
SWIDTH 291 0
DWIDTH 10 0
BBX 11 15 0 0
BITMAP
000000000010
000007E61370
0000254CE900
000060000000
000000000000
000000000000
005D6018EB00
051C6251BA00
001F4302F400
006D4008C000
00BC000D6000
01F5002F2000
06D0005E0010
0B70006E2610
2D20003EB200
ENDCHAR
STARTCHAR ograve
ENCODING 242
SWIDTH 225 0
DWIDTH 8 0
BBX 8 15 1 0
BITMAP
00005300
0002EE20
00002CB0
00000076
00000000
00000000
0019ED20
01822E90
081009B0
29000890
86000A50
C4000A00
D5005400
BB147000
4DD60000
ENDCHAR
STARTCHAR oacute
ENCODING 243
SWIDTH 225 0
DWIDTH 8 0
BBX 8 14 1 0
BITMAP
000000CC
000008C4
00004500
00000000
00000000
0019ED20
01822E90
081009B0
29000890
86000A50
C4000A00
D5005400
BB147000
4DD60000
ENDCHAR
STARTCHAR ocircumflex
ENCODING 244
SWIDTH 225 0
DWIDTH 8 0
BBX 9 15 1 0
BITMAP
0000010000
00002DA000
000483AD30
0002000210
0000000000
0000000000
0019ED2000
01822E9000
081009B000
2900089000
86000A5000
C4000A0000
D500540000
BB14700000
4DD6000000
ENDCHAR
STARTCHAR otilde
ENCODING 245
SWIDTH 225 0
DWIDTH 8 0
BBX 9 15 1 0
BITMAP
0000000010
0007E61370
00254CE900
0060000000
0000000000
0000000000
0019ED2000
01822E9000
081009B000
2900089000
86000A5000
C4000A0000
D500540000
BB14700000
4DD6000000
ENDCHAR
STARTCHAR odieresis
ENCODING 246
SWIDTH 225 0
DWIDTH 8 0
BBX 8 14 1 0
BITMAP
00001001
000AA0AA
000E40D4
00000000
00000000
0019ED20
01822E90
081009B0
29000890
86000A50
C4000A00
D5005400
BB147000
4DD60000
ENDCHAR
STARTCHAR divide
ENCODING 247
SWIDTH 301 0
DWIDTH 11 0
BBX 8 8 2 1
BITMAP
00004100
0000C300
00000000
ACCBBBB7
00000000
00000000
00590000
00230000
ENDCHAR
STARTCHAR oslash
ENCODING 248
SWIDTH 225 0
DWIDTH 8 0
BBX 9 12 0 -1
BITMAP
0000000010
0000000460
00019ED900
001923F900
008108AB00
0290638900
086270A500
0C5900B000
0EC2064000
0CC3670000
1ADD600000
6100000000
ENDCHAR
STARTCHAR ugrave
ENCODING 249
SWIDTH 299 0
DWIDTH 11 0
BBX 10 15 1 0
BITMAP
0000035000
00000BF500
0000009E20
0000000480
0000000000
0000000000
003A1002C1
06E5000A90
37C0003F20
0C5000AB00
3E1004C700
8C0024E400
BA0151F300
CC3701F453
7E8000BD40
ENDCHAR
STARTCHAR uacute
ENCODING 250
SWIDTH 299 0
DWIDTH 11 0
BBX 10 14 1 0
BITMAP
00000003E8
0000001DA1
0000006300
0000000000
0000000000
003A1002C1
06E5000A90
37C0003F20
0C5000AB00
3E1004C700
8C0024E400
BA0151F300
CC3701F453
7E8000BD40
ENDCHAR
STARTCHAR ucircumflex
ENCODING 251
SWIDTH 299 0
DWIDTH 11 0
BBX 10 15 1 0
BITMAP
0000001100
000001CC10
00004839D4
0000200021
0000000000
0000000000
003A1002C1
06E5000A90
37C0003F20
0C5000AB00
3E1004C700
8C0024E400
BA0151F300
CC3701F453
7E8000BD40
ENDCHAR
STARTCHAR udieresis
ENCODING 252
SWIDTH 299 0
DWIDTH 11 0
BBX 10 14 1 0
BITMAP
0000010010
00003E33E3
00007A06B0
0000000000
0000000000
003A1002C1
06E5000A90
37C0003F20
0C5000AB00
3E1004C700
8C0024E400
BA0151F300
CC3701F453
7E8000BD40
ENDCHAR
STARTCHAR yacute
ENCODING 253
SWIDTH 280 0
DWIDTH 10 0
BBX 18 23 -7 -9
BITMAP
0000000000000001DB
000000000000000AC3
000000000000005500
000000000000000000
000000000000000000
00000000003B0001C2
0000000006D50008C0
0000000025C0001E60
000000000B50008F10
000000002F1003CB00
000000006C0007D500
000000009A0064E000
00000000AB16199000
000000007E800E3000
0000000000005C0000
000000000000B60000
000000000002D10000
081000000009600000
2B000000003B000000
5C00000000B2000000
3F2000000930000000
0BB200039300000000
018DCA960000000000
ENDCHAR
STARTCHAR thorn
ENCODING 254
SWIDTH 261 0
DWIDTH 9 0
BBX 11 27 -2 -9
BITMAP
000000000410
000000019F30
000000054C00
00000000A600
00000002D000
000000088000
0000000D2000
0000005A0000
000000C40000
000003D17E60
0000087208E0
00000D2004F0
00005A0004E0
0000B30007A0
0001B0000D30
000760007900
002D81289000
002EEEB40000
007700000000
00B300000000
01D000000000
059000000000
096000000000
0C4000000000
1F2000000000
2F2100000000
2EA700000000
ENDCHAR
STARTCHAR ydieresis
ENCODING 255
SWIDTH 280 0
DWIDTH 10 0
BBX 18 23 -7 -9
BITMAP
000000000000010010
0000000000004F14F2
0000000000008907A0
000000000000000000
000000000000000000
00000000003B0001C2
0000000006D50008C0
0000000025C0001E60
000000000B50008F10
000000002F1003CB00
000000006C0007D500
000000009A0064E000
00000000AB16199000
000000007E800E3000
0000000000005C0000
000000000000B60000
000000000002D10000
081000000009600000
2B000000003B000000
5C00000000B2000000
3F2000000930000000
0BB200039300000000
018DCA960000000000
ENDCHAR
STARTCHAR dotlessi
ENCODING 305
SWIDTH 149 0
DWIDTH 5 0
BBX 4 9 1 0
BITMAP
004B
06B6
23D0
0980
1E20
5D00
9902
BA45
9E60
ENDCHAR
STARTCHAR Lslash
ENCODING 321
SWIDTH 657 0
DWIDTH 24 0
BBX 25 23 1 0
BITMAP
000000000000000000028DEC20
0000000000000000006EFFFFB0
000000000000000007C5102BF0
00000000000000005A000001E0
0000000000000002B0000000B0
000000000000000A3000000170
000000000000003A0000000000
00000000000000B30000000000
00000000000002D00000000000
00000000000008847871000000
0000000000003DD82000000000
0000000004999F000000000000
0000000036108B000000000000
000000000000C7000000000000
000000000001F2000000000000
000000000006C0000000000000
00000000000B60000000000000
00000000002E10000000000000
0013420000A600000000000000
022247B944B000000000051000
A3000003DF8100000000270000
DC41025B539EB7411026910000
4CEEDA6100017BDEEDA5000000
ENDCHAR
STARTCHAR lslash
ENCODING 322
SWIDTH 134 0
DWIDTH 5 0
BBX 17 27 1 0
BITMAP
0000000000003AEB00
000000000007D99E20
000000000088100500
000000000760000000
000000004700000000
000000019000000000
000000081000000000
000000360000000000
000000900000000000
000004600000000000
00000A033000000000
00029B630000000000
0186C0000000000000
010490000000000000
000A30000000000000
002C00000000000000
008700000000000000
00D200000000000000
04C000000000000000
098000000000000000
0E4000000000000000
3F1000000000000000
7D0000000000000000
AA0000000000000000
C80000000000000000
E80400000000000000
9C3000000000000000
ENDCHAR
STARTCHAR OE
ENCODING 338
SWIDTH 827 0
DWIDTH 30 0
BBX 30 23 2 0
BITMAP
00000000017BDFED820003789BD940
0000000189421137EF709600002AF7
00000047100000001AFD50000000A8
000005400000000000CD0000000062
000064000000000000AB0000000030
0003600000000000009E1000000000
001A000000000000003F9000000000
00850000000000000005EC50000000
01C00000000000000038DFE3000000
079000000000000039731000000000
0C5000000000000770000000000000
1F3000000000008600000000000000
4F200000000005C000000000000000
6F10000000000D5000000000000000
7F20000000005F2000000000000000
6F30000000009F0000000000000000
5F7000000000BE0000000000001100
1FC000000000CF0000000000007100
0BF400000000AF3000000000009000
04FD100000006F9000000000076000
008FD30000000DF4000000005E1000
0007FFA5201388CE6000003AD50000
000028CEFEB72006BDB99973000000
ENDCHAR
STARTCHAR oe
ENCODING 339
SWIDTH 345 0
DWIDTH 12 0
BBX 12 9 1 0
BITMAP
0019EC118DC1
01812E7702F6
081009E105C1
290008C67500
86000AA10000
C4000D700000
D5006F800010
CB256CD21740
4DD504DEB300
ENDCHAR
STARTCHAR Scaron
ENCODING 352
SWIDTH 480 0
DWIDTH 17 0
BBX 18 27 1 0
BITMAP
000000000001940016
0000000000003D9591
00000000000001D700
000000000000000000
000000000003ADED60
0000000000671016F7
00000000037000006D
000000000B2000003B
000000000E10000053
000000000F40000020
000000000DB0000000
0000000008F4000000
0000000001ED100000
00000000006F900000
00000000000AF40000
000000000001ED1000
0000000000005F7000
0000000000000CE100
00010000000004F500
00820000000000E700
08500000000000C800
1E200000000000B600
2F300000000000D200
1F8000000000049000
0AF5000000002A1000
01CF93000027810000
0005ADEDCA72000000
ENDCHAR
STARTCHAR scaron
ENCODING 353
SWIDTH 188 0
DWIDTH 7 0
BBX 10 15 -1 0
BITMAP
0000970002
0000063320
0000001600
0000000000
0000000000
0000000000
0000988700
0006B00800
0008C00200
0003F50000
00009E1000
00101E7000
0720098000
1D000B4000
0896860000
ENDCHAR
STARTCHAR Ydieresis
ENCODING 376
SWIDTH 662 0
DWIDTH 24 0
BBX 32 32 0 -5
BITMAP
000000000000000000000961C2000000
000000000000000000001D25B0000000
00000000000000000000000000000000
00000000000000000000000000000000
00000000000006DE70000000000002C4
000000000001952CD000000000000AD0
0000000000081009D000000000002F60
000000000002000AB00000000000AD00
000000000000000D800000000003F700
000000000000002F30000000000CE100
000000000000007E00000000005F7000
00000000000000C90000000001DE0000
00000000000002F40000000008F60000
00000000000006E0000000003FD00000
0000000000000B9000000000BF500000
0000000000001F5000000006DC000000
0000000000004F1000000048F3000000
0000000000007E000000034EA0000000
0000027700009C000000347E20000000
000296100000AD00000441E700000000
0058000000007F61148209C000000000
04A00000000019EEB5003E2000000000
0D200000000000000000D70000000000
5D000000000000000008A00000000000
9A00000000000000004D100000000000
BA0000000000000002D2000000000000
BC000000000000001C30000000000000
8F10000000000001B400000000000000
4F8000000000002B3000000000000000
0BF60000000007910000000000000000
01CFB5201259A4000000000000000000
0006BEFEDB7200000000000000000000
ENDCHAR
STARTCHAR Zcaron
ENCODING 381
SWIDTH 625 0
DWIDTH 23 0
BBX 25 27 1 0
BITMAP
00000000000000076000520000
0000000000000001AC49300000
00000000000000000AB1000000
00000000000000000000000000
000000000017CEFEDA61000000
0000000001C7201247BFA41660
000000000A30000000027CFA00
00000000270000000000098000
00000000610000000000A70000
0000000060000000001A500000
000000000000000001B4000000
00000000000000001B30000000
0000000000000002B200000000
000000000000003A1000000000
00000000000003A10000000000
00000000000049000000000000
00000000000580000000000000
00000000006700000000000000
00000000075000000000000000
00000000840000000000000000
00000008300000000000330000
00000092000000000000800000
00001920000000000006400000
00019100000000000058000000
002DEDB9753110025BA0000000
02DEDFFFFFFFFFFFF900000000
1C500147ACEFFED93000000000
ENDCHAR
STARTCHAR zcaron
ENCODING 382
SWIDTH 248 0
DWIDTH 9 0
BBX 11 15 -1 0
BITMAP
000008800030
000000543200
000000027000
000000000000
000000000000
000000000000
0004DEDA8900
00172249A000
001000380000
000004700000
000047000000
000460001000
004600007000
05E842274000
3959DED50000
ENDCHAR
STARTCHAR florin
ENCODING 402
SWIDTH 214 0
DWIDTH 8 0
BBX 13 14 -3 -3
BITMAP
000000001AEC00
00000002921A10
0000000A100000
0000004A000000
00000096000000
000000E3000000
00007EFECB5000
000026C0000000
00000A70000000
00000E10000000
00005900000000
0000B100000000
20083000000000
AB920000000000
ENDCHAR
STARTCHAR circumflex
ENCODING 710
SWIDTH 196 0
DWIDTH 7 0
BBX 7 4 0 11
BITMAP
00010000
004E7000
0664DB10
11000300
ENDCHAR
STARTCHAR caron
ENCODING 711
SWIDTH 196 0
DWIDTH 7 0
BBX 7 3 0 12
BITMAP
1C300110
01815100
00023000
ENDCHAR
STARTCHAR breve
ENCODING 728
SWIDTH 198 0
DWIDTH 7 0
BBX 7 3 0 12
BITMAP
29000230
0A001200
004A9100
ENDCHAR
STARTCHAR dotaccent
ENCODING 729
SWIDTH 89 0
DWIDTH 3 0
BBX 3 3 0 11
BITMAP
0A60
2F50
3C00
ENDCHAR
STARTCHAR ring
ENCODING 730
SWIDTH 117 0
DWIDTH 4 0
BBX 4 3 0 11
BITMAP
0694
3526
1B81
ENDCHAR
STARTCHAR ogonek
ENCODING 731
SWIDTH 124 0
DWIDTH 4 0
BBX 4 5 0 -5
BITMAP
0172
0910
3900
2D74
0220
ENDCHAR
STARTCHAR tilde
ENCODING 732
SWIDTH 222 0
DWIDTH 8 0
BBX 8 3 0 11
BITMAP
02DA3181
0729EC30
24000000
ENDCHAR
STARTCHAR hungarumlaut
ENCODING 733
SWIDTH 253 0
DWIDTH 9 0
BBX 9 3 0 11
BITMAP
002EA09E30
02DB28E600
2A40771000
ENDCHAR
STARTCHAR mu.dup2
ENCODING 956
SWIDTH 324 0
DWIDTH 12 0
BBX 13 15 -1 -6
BITMAP
000003B0002D10
00001D4000B800
00007B0004F100
0001E4000BA000
0007E0004C6000
000DA0023F3000
005D90142F2000
00B9A2603F4510
02E3E7000CC300
07A00000000000
0C600000000000
1F300000000000
4F100000000000
8D000000000000
42000000000000
ENDCHAR
STARTCHAR endash
ENCODING 8211
SWIDTH 500 0
DWIDTH 18 0
BBX 18 1 0 5
BITMAP
3EEEEEEEEEEEEFFFE2
ENDCHAR
STARTCHAR emdash
ENCODING 8212
SWIDTH 1000 0
DWIDTH 36 0
BBX 36 1 0 5
BITMAP
3EEEEEEEEEEEEEEEEEEEEEEEEEEEEEEFFFE2
ENDCHAR
STARTCHAR quoteleft
ENCODING 8216
SWIDTH 87 0
DWIDTH 3 0
BBX 3 6 2 9
BITMAP
0060
0810
6600
D400
F700
6100
ENDCHAR
STARTCHAR quoteright
ENCODING 8217
SWIDTH 87 0
DWIDTH 3 0
BBX 4 6 1 9
BITMAP
0039
009D
006A
0093
0450
1400
ENDCHAR
STARTCHAR quotesinglbase
ENCODING 8218
SWIDTH 112 0
DWIDTH 4 0
BBX 4 5 0 -3
BITMAP
03D1
03C0
0460
0600
6100
ENDCHAR
STARTCHAR quotedblleft
ENCODING 8220
SWIDTH 167 0
DWIDTH 6 0
BBX 6 6 2 9
BITMAP
017017
081090
570750
C40E20
F71F60
B20C20
ENDCHAR
STARTCHAR quotedblright
ENCODING 8221
SWIDTH 167 0
DWIDTH 6 0
BBX 7 6 1 9
BITMAP
003B0590
009D0BC0
005B0790
00840A20
02803700
17026000
ENDCHAR
STARTCHAR quotedblbase
ENCODING 8222
SWIDTH 192 0
DWIDTH 7 0
BBX 6 5 0 -3
BITMAP
02C04C
04F16E
03B059
082091
620710
ENDCHAR
STARTCHAR dagger
ENCODING 8224
SWIDTH 185 0
DWIDTH 7 0
BBX 9 22 0 -3
BITMAP
0000003300
000001D000
0000069000
00000B4000
00001D0000
0000690000
0000A40000
1AEFFDCC70
0002B00000
0006600000
000A200000
000C000000
0038000000
0064000000
0090000000
0090000000
0270000000
0540000000
0810000000
0800000000
0700000000
2400000000
ENDCHAR
STARTCHAR daggerdbl
ENCODING 8225
SWIDTH 185 0
DWIDTH 7 0
BBX 10 22 -1 -3
BITMAP
0000000330
0000001D10
0000005900
000000B400
000001E000
0000059000
00000A4000
01AEEFEDD8
00002B0000
0000660000
0000A20000
0000B00000
0003800000
0007300000
000A000000
AEFFEDC700
0018000000
0054000000
0081000000
0080000000
0080000000
0250000000
ENDCHAR
STARTCHAR bullet
ENCODING 8226
SWIDTH 207 0
DWIDTH 7 0
BBX 5 4 2 3
BITMAP
2BEA00
CFFF20
FFFE00
8EC300
ENDCHAR
STARTCHAR ellipsis
ENCODING 8230
SWIDTH 376 0
DWIDTH 14 0
BBX 12 2 1 0
BITMAP
5E1008C001B8
C7001D4005C2
ENDCHAR
STARTCHAR perthousand
ENCODING 8240
SWIDTH 571 0
DWIDTH 21 0
BBX 20 17 0 -3
BITMAP
00000000000060000000
00000000000590000000
00000000002B00000000
0018CC1000B200000000
01700C60085000000000
08100960490000000000
1C000B31A00000000000
4D003A0A219C80004BC3
3FA8B1651946F20583BB
08C913909100D328004C
00000A12A000C1940049
00008306900280C30082
00047006D23A10C81670
001A0001CEA1005ED600
00A20000000000000000
06600000000000000000
05000000000000000000
ENDCHAR
STARTCHAR guilsinglleft
ENCODING 8249
SWIDTH 189 0
DWIDTH 7 0
BBX 8 9 0 0
BITMAP
00000191
00004A10
00078000
00950000
1B400000
1DC10000
01DC1000
002EA000
0004B000
ENDCHAR
STARTCHAR guilsinglright
ENCODING 8250
SWIDTH 176 0
DWIDTH 6 0
BBX 7 9 -1 0
BITMAP
008D0000
003F8000
0007F500
00008F50
00002C30
00049100
00670000
08500000
83000000
ENDCHAR
STARTCHAR fraction
ENCODING 8260
SWIDTH 220 0
DWIDTH 8 0
BBX 13 15 -1 -2
BITMAP
00000000000230
00000000002B20
0000000001B200
000000000A3000
00000000950000
00000007700000
00000058000000
000003A0000000
00001B10000000
0000A200000000
00093000000000
00750000000000
05800000000000
3A000000000000
51000000000000
ENDCHAR
STARTCHAR Euro
ENCODING 8364
SWIDTH 360 0
DWIDTH 13 0
BBX 12 11 0 0
BITMAP
0000011116D2
000050000091
000910000040
005A01000000
1AFFFFFC0000
12E511000000
6AF511000000
01F500002000
00EA00008000
007F71295000
0007DFD80000
ENDCHAR
STARTCHAR trademark
ENCODING 8482
SWIDTH 389 0
DWIDTH 14 0
BBX 11 6 2 5
BITMAP
56B771082180
0190006B0870
0830052A5650
0C00443C2730
4A0280550780
100210000000
ENDCHAR
STARTCHAR minus
ENCODING 8722
SWIDTH 301 0
DWIDTH 11 0
BBX 8 1 2 5
BITMAP
CFFFFFF9
ENDCHAR
STARTCHAR fi
ENCODING 64257
SWIDTH 297 0
DWIDTH 11 0
BBX 30 36 -11 -9
BITMAP
00000000000000000000000017CFC2
000000000000000000000003B867DA
00000000000000000000004700002A
000000000000000000000370000002
000000000000000000001900000000
000000000000000000008200000000
000000000000000000047000000000
0000000000000000000B1000000000
000000000000000000580000000000
000000000000000000D20000000000
000000000000000005A00000000000
00000000000000000C400000000000
00000000000000003E000005000000
000000000000000099000062000000
0000000000000001E4000550000000
0000000000000005D0000900000000
000000000000000A90000000000000
000000000000001F40000000000000
0000000000005DFFFEDCE600000000
000000000000429C0002C000000000
00000000000000E7000B4000000000
00000000000003F2003D0000000000
00000000000008B000A70000000000
0000000000000E6000E30000000000
0000000000004E1004E01100000000
000000000000A90006E37000000000
000000000001E20004E90000000000
000000000007A00000000000000000
00000000000D200000000000000000
000000000069000000000000000000
0000000001C1000000000000000000
000000000840000000000000000000
010000004700000000000000000000
440000037000000000000000000000
6A1001650000000000000000000000
1BDBA7100000000000000000000000
ENDCHAR
STARTCHAR fl
ENCODING 64258
SWIDTH 290 0
DWIDTH 10 0
BBX 34 36 -11 -9
BITMAP
0000000000000000000000000010006CE7
0000000000000000000000029EFD3BB8AC
00000000000000000000004C756CD40005
0000000000000000000004800006200000
0000000000000000000029000042000000
00000000000000000000A1000240000000
0000000000000000000660000500000000
0000000000000000001C00004100000000
0000000000000000008700014000000000
000000000000000001E100060000000000
000000000000000007A000250000000000
00000000000000000D4000700000000000
00000000000000004D0001600000000000
0000000000000000A80008100000000000
0000000000000001F30019000000000000
0000000000000006D00064000000000000
000000000000000B8000B0000000000000
000000000000001F300390000000000000
0000000000004CEFEEDE40000000000000
000000000000429B000B10000000000000
00000000000000E6002B00000000000000
00000000000004F1007800000000000000
00000000000009A000B600000000000000
0000000000000E5000E400000000000000
0000000000004E0002F305000000000000
000000000000A80004F982000000000000
000000000001E20001DB20000000000000
0000000000079000000000000000000000
00000000001D2000000000000000000000
0000000000780000000000000000000000
0000000001C10000000000000000000000
0000000009400000000000000000000000
0100000057000000000000000000000000
5300000370000000000000000000000000
7900016500000000000000000000000000
1BDB961000000000000000000000000000
ENDCHAR
STARTCHAR .notdef
ENCODING -1
SWIDTH 150 0
DWIDTH 5 0
BBX 1 1 0 0
BITMAP
00
ENDCHAR
STARTCHAR .null
ENCODING -1
SWIDTH 0 0
DWIDTH 0 0
BBX 1 1 0 0
BITMAP
00
ENDCHAR
STARTCHAR nonmarkingreturn
ENCODING -1
SWIDTH 150 0
DWIDTH 5 0
BBX 1 1 0 0
BITMAP
00
ENDCHAR
ENDFONT
